<svg width="55555" height="777" xmlns="http://www.w3.org/2000/svg" xmlns:xlink="http://www.w3.org/1999/xlink" fill="none">
 <g id="Layer_1">
  
        <path d="m27814.00815,249.52944l0,0c-1.57547,-0.20427 -3.34373,0.76263 -4.68819,2.34937c-1.65314,1.95349 -2.94177,4.72674 -3.99449,8.01376c-1.18436,3.70126 -1.99759,7.88118 -2.49741,12.37804c-0.52207,4.70364 -0.67432,9.55532 -0.46487,14.40635c-3.65563,-0.00639 -7.1216,-0.01568 -10.35662,-0.02838c-2.96628,-0.01167 -5.63047,-0.02566 -7.96374,-0.04348c-1.97852,-0.0151 -3.58345,-0.03102 -4.801,-0.0535c-0.82176,-0.01518 -1.29839,-0.0542 -1.26702,-0.05767c-1.22626,-9.20235 2.10172,-18.90997 8.8624,-25.85127c6.76713,-6.93606 16.97031,-11.10926 27.17096,-11.11322z" fill="#3C3A6E"/>
        <g>
         <path d="m27811.46466,249.59985c-0.80419,0.04859 -1.60729,0.12214 -2.40726,0.22036c-0.00522,0.00243 -0.00967,0.00495 -0.01312,0.00771c-0.49129,0.05882 -0.98014,0.12639 -1.46607,0.2027c-0.7962,0.12887 -1.58809,0.28228 -2.37372,0.4599c0.4898,-0.11249 0.98232,-0.21524 1.47692,-0.30826c-0.47926,0.08679 -0.95485,0.18233 -1.42617,0.28669c0.77568,-0.17317 1.55854,-0.32266 2.34662,-0.44818c0.49606,-0.08081 0.9933,-0.1518 1.49104,-0.21293c-0.00881,0.00243 -0.01689,0.00499 -0.0241,0.00767c0.79516,-0.09603 1.59436,-0.16793 2.39587,-0.21566z" fill="#FFFFFF"/>
         <path d="m27811.57483,249.57787c-0.77269,0.0417 -1.54597,0.10841 -2.31784,0.19977c-0.0177,0.00243 -0.03468,0.00487 -0.05093,0.00743c-0.46465,0.05462 -0.92503,0.11806 -1.38051,0.19053c-0.77278,0.12235 -1.54302,0.26932 -2.30871,0.44051c0.49084,-0.10828 0.98209,-0.20703 1.47311,-0.29618c-0.44377,0.08279 -0.88204,0.17453 -1.3141,0.27543c0.73338,-0.16715 1.47479,-0.31028 2.22219,-0.42925c0.48635,-0.07648 0.97156,-0.1433 1.45513,-0.20035c-0.0212,0.00239 -0.04172,0.00479 -0.06146,0.0073c0.75662,-0.08935 1.51832,-0.1544 2.28311,-0.1952z" fill="#FFFFFF"/>
         <path d="m27811.79054,249.55728c-0.70755,0.03523 -1.41737,0.09549 -2.12737,0.18035c-0.02955,0.00223 -0.05847,0.0045 -0.08666,0.00685c-0.41735,0.05061 -0.82875,0.11022 -1.23343,0.17919c-0.71608,0.11624 -1.4313,0.2572 -2.14375,0.4222c0.47064,-0.1042 0.93942,-0.19907 1.40579,-0.28442c-0.38893,0.07916 -0.77069,0.16752 -1.14437,0.26545c0.65843,-0.16154 1.32576,-0.29882 1.99972,-0.41172c0.45525,-0.07227 0.90728,-0.13514 1.3555,-0.18827c-0.03277,0.00215 -0.06487,0.00437 -0.09633,0.0066c0.68508,-0.08316 1.3761,-0.14182 2.0709,-0.17622z" fill="#FFFFFF"/>
         <path d="m27812.10262,249.53905c-0.61159,0.02945 -1.22685,0.08403 -1.84357,0.16298c-0.04017,0.00194 -0.07976,0.00392 -0.11875,0.00594c-0.35207,0.04715 -0.69665,0.10346 -1.03284,0.16946c-0.62738,0.11072 -1.25545,0.24614 -1.88229,0.40537c0.42924,-0.10024 0.85449,-0.19144 1.27528,-0.27328c-0.31662,0.07598 -0.62457,0.16145 -0.92262,0.25695c0.55371,-0.15659 1.11727,-0.28875 1.68809,-0.39633c0.40405,-0.06839 0.80292,-0.12763 1.19607,-0.17729c-0.04294,0.00182 -0.08529,0.00371 -0.1271,0.00561c0.58317,-0.07767 1.17324,-0.13072 1.76771,-0.15939z" fill="#FFFFFF"/>
         <path d="m27812.49764,249.52395c-0.4888,0.02467 -0.9825,0.0745 -1.4786,0.14842c-0.04907,0.00157 -0.09764,0.00314 -0.14571,0.00479c-0.27082,0.04418 -0.53283,0.09768 -0.78481,0.16133c-0.51136,0.10622 -1.02462,0.23715 -1.53784,0.39138c0.36814,-0.09648 0.73047,-0.18435 1.08658,-0.26318c-0.22992,0.07334 -0.4498,0.15659 -0.6578,0.25014c0.42375,-0.15246 0.85848,-0.28067 1.30107,-0.38396c0.33441,-0.06489 0.66206,-0.12099 0.9825,-0.16772c-0.05107,0.0014 -0.10173,0.00289 -0.15198,0.00437c0.45525,-0.07326 0.91849,-0.12165 1.38659,-0.14557z" fill="#FFFFFF"/>
         <path d="m27810.11847,250.18932c0.29088,-0.09323 0.57436,-0.17841 0.85027,-0.25505c-0.13396,0.07165 -0.25647,0.15386 -0.36415,0.24598c0.27336,-0.14891 0.55934,-0.27456 0.85412,-0.37496c0.25025,-0.06196 0.49238,-0.11567 0.72621,-0.16034c-0.05715,0.00095 -0.11398,0.00194 -0.17054,0.00297c0.30672,-0.06992 0.62289,-0.11492 0.94414,-0.13534c-0.34463,0.02108 -0.69507,0.06744 -1.04823,0.13732c-0.05579,0.00107 -0.11126,0.00223 -0.16637,0.00342c-0.17871,0.04203 -0.34771,0.09376 -0.50455,0.15613c-0.37159,0.103 -0.74582,0.23034 -1.1209,0.37987z" fill="#FFFFFF"/>
         <path d="m27805.5453,250.40184c-0.779,0.16999 -1.55305,0.36428 -2.32015,0.58233c-0.02433,0.0052 -0.04694,0.01056 -0.06786,0.01617c-0.4543,0.12961 -0.9031,0.268 -1.34574,0.41522c-0.75993,0.24796 -1.51179,0.51946 -2.25365,0.81387c0.47745,-0.18649 0.95903,-0.36383 1.44401,-0.53192c-0.43201,0.15729 -0.85726,0.3234 -1.27492,0.49847c0.7134,-0.28904 1.43884,-0.55535 2.1743,-0.79836c0.48612,-0.1558 0.97483,-0.30228 1.46539,-0.4394c-0.03227,0.0052 -0.06296,0.01048 -0.09188,0.01601c0.74836,-0.21446 1.50584,-0.40532 2.27049,-0.57239z" fill="#FFFFFF"/>
         <path d="m27806.08698,250.33118c-0.73869,0.16401 -1.47415,0.35236 -2.20449,0.56443c-0.05157,0.00499 -0.10155,0.01007 -0.14993,0.01526c-0.40768,0.1261 -0.80805,0.26128 -1.20025,0.40574c-0.72825,0.24284 -1.45019,0.50923 -2.16404,0.79844c0.48249,-0.18294 0.96661,-0.35694 1.45187,-0.52194c-0.37745,0.15423 -0.74627,0.31763 -1.10547,0.49042c0.65448,-0.2845 1.32181,-0.54599 1.9999,-0.78384c0.48031,-0.15192 0.9608,-0.29477 1.44093,-0.42842c-0.05924,0.00487 -0.11689,0.00986 -0.17299,0.01493c0.69216,-0.20889 1.3944,-0.39402 2.10449,-0.55502z" fill="#FFFFFF"/>
         <path d="m27806.97579,250.26654c-0.66579,0.15852 -1.32998,0.34139 -1.99087,0.54772c-0.07676,0.0045 -0.15211,0.00903 -0.22606,0.01374c-0.34286,0.12301 -0.67677,0.25542 -1.00052,0.39757c-0.66424,0.23814 -1.32399,0.49971 -1.97761,0.7838c0.46606,-0.17931 0.93129,-0.34997 1.39535,-0.51187c-0.30586,0.15164 -0.60137,0.31288 -0.88513,0.48378c0.56606,-0.28058 1.14578,-0.53803 1.73689,-0.77154c0.45244,-0.14776 0.90279,-0.28681 1.3505,-0.417c-0.08371,0.00429 -0.166,0.0087 -0.24694,0.0132c0.60464,-0.2039 1.22027,-0.38383 1.84438,-0.53939z" fill="#FFFFFF"/>
         <path d="m27808.17454,250.21081c-0.5632,0.15386 -1.1263,0.33194 -1.68759,0.53299c-0.099,0.00375 -0.19683,0.00763 -0.29342,0.01155c-0.26274,0.12057 -0.5149,0.25101 -0.75476,0.39142c-0.57001,0.23405 -1.1372,0.49125 -1.70021,0.77035c0.42874,-0.17589 0.85435,-0.34357 1.27656,-0.5028c-0.2207,0.14994 -0.42933,0.30991 -0.62393,0.47941c0.44949,-0.27638 0.91336,-0.53011 1.38931,-0.75979c0.40564,-0.14438 0.80696,-0.28042 1.20361,-0.40792c-0.10459,0.00351 -0.20808,0.00714 -0.3104,0.01085c0.48934,-0.19949 0.99053,-0.37509 1.50085,-0.52606z" fill="#FFFFFF"/>
         <path d="m27809.63181,250.16655c-0.43537,0.15044 -0.87169,0.32468 -1.30756,0.52095c-0.11675,0.00285 -0.2326,0.00582 -0.34753,0.00887c-0.17086,0.11897 -0.32938,0.24824 -0.47318,0.38697c-0.45003,0.23121 -0.8987,0.4849 -1.34515,0.75938c0.37141,-0.17247 0.73755,-0.33722 1.09825,-0.4941c-0.12538,0.14953 -0.23641,0.30901 -0.33155,0.47648c0.31213,-0.27254 0.6391,-0.52388 0.97905,-0.7515c0.33941,-0.14095 0.67264,-0.27415 0.99938,-0.39926c-0.12093,0.00256 -0.24108,0.00524 -0.36033,0.008c0.35089,-0.19569 0.71477,-0.36816 1.08863,-0.51579z" fill="#FFFFFF"/>
         <path d="m27799.60293,252.1994c-0.74572,0.29255 -1.48101,0.60799 -2.20404,0.94562c-0.01444,0.00726 -0.02637,0.01485 -0.03473,0.02318c-0.43855,0.20155 -0.87042,0.41147 -1.29489,0.62985c-0.70605,0.36428 -1.39885,0.75014 -2.07662,1.1567c0.42783,-0.25728 0.86338,-0.50602 1.30583,-0.74622c-0.41072,0.22638 -0.81354,0.46101 -1.20756,0.70394c0.6632,-0.4005 1.34197,-0.78037 2.03458,-1.13884c0.4533,-0.23088 0.91286,-0.45289 1.37792,-0.66603c-0.02656,0.00738 -0.05057,0.01497 -0.07172,0.0231c0.71136,-0.33252 1.43571,-0.64317 2.17122,-0.93131z" fill="#FFFFFF"/>
         <path d="m27800.1837,252.0844c-0.7307,0.28793 -1.45273,0.59883 -2.16436,0.93192c-0.05674,0.0073 -0.11099,0.01481 -0.16269,0.02252c-0.39225,0.19891 -0.77587,0.4066 -1.14991,0.62313c-0.69924,0.3609 -1.38691,0.74349 -2.06141,1.1468c0.45729,-0.25497 0.9199,-0.5016 1.38709,-0.73986c-0.35697,0.22436 -0.7041,0.45738 -1.04024,0.69903c0.62026,-0.39773 1.25699,-0.77456 1.90839,-1.12951c0.47277,-0.22799 0.94931,-0.44736 1.42899,-0.65802c-0.06873,0.00722 -0.13495,0.01456 -0.19869,0.02215c0.67101,-0.32856 1.35595,-0.63484 2.05283,-0.91815z" fill="#FFFFFF"/>
         <path d="m27801.37223,251.97615c-0.6834,0.2836 -1.36003,0.59013 -2.02832,0.91856c-0.09737,0.00681 -0.19242,0.01374 -0.28512,0.02083c-0.32797,0.19652 -0.6455,0.40223 -0.95127,0.61706c-0.66202,0.35793 -1.31446,0.73743 -1.95591,1.13747c0.46714,-0.25249 0.93706,-0.49694 1.4091,-0.73326c-0.28702,0.22296 -0.56229,0.45495 -0.82448,0.69564c0.54863,-0.39497 1.11432,-0.76903 1.69517,-1.12097c0.47128,-0.2249 0.94382,-0.44146 1.41714,-0.64961c-0.1084,0.0066 -0.21458,0.01328 -0.31844,0.02017c0.60006,-0.32464 1.21482,-0.62692 1.84211,-0.9059z" fill="#FFFFFF"/>
         <path d="m27803.12215,251.87963c-0.60537,0.27984 -1.20579,0.58229 -1.79999,0.90623c-0.13409,0.00594 -0.26619,0.012 -0.39619,0.01819c-0.24898,0.19495 -0.48562,0.39943 -0.70841,0.6129c-0.59434,0.35521 -1.18118,0.73161 -1.75941,1.12807c0.45557,-0.24969 0.91132,-0.49166 1.3668,-0.72588c-0.20345,0.2223 -0.3932,0.45371 -0.56801,0.69325c0.45085,-0.39217 0.9189,-0.76395 1.40261,-1.11371c0.44849,-0.22168 0.8957,-0.4354 1.34129,-0.64111c-0.14367,0.00561 -0.28543,0.01139 -0.42525,0.01728c0.50096,-0.32093 1.01722,-0.61978 1.54656,-0.89521z" fill="#FFFFFF"/>
         <path d="m27805.36023,251.79923c-0.49951,0.27695 -0.99589,0.57589 -1.48818,0.89542c-0.16514,0.00479 -0.32865,0.00965 -0.49048,0.01473c-0.15811,0.19416 -0.30187,0.39773 -0.43015,0.60927c-0.49924,0.35351 -0.99321,0.72753 -1.48114,1.12081c0.42257,-0.24647 0.84278,-0.48572 1.26021,-0.71767c-0.10935,0.22279 -0.20318,0.45392 -0.28121,0.69168c0.33124,-0.3894 0.67931,-0.75971 1.04323,-1.1086c0.40437,-0.2183 0.80505,-0.42908 1.20179,-0.63241c-0.17231,0.00437 -0.34313,0.00887 -0.5124,0.01353c0.37776,-0.31746 0.77114,-0.61372 1.17832,-0.88676z" fill="#FFFFFF"/>
         <path d="m27807.98902,251.73872c-0.37023,0.27543 -0.7391,0.57156 -1.10633,0.8868c-0.18893,0.00338 -0.37663,0.00689 -0.56315,0.01052c-0.05992,0.19598 -0.10381,0.39992 -0.13228,0.60972c-0.3794,0.35219 -0.75603,0.72345 -1.12971,1.1126c0.37027,-0.24354 0.73574,-0.4804 1.09607,-0.71062c-0.0089,0.22494 -0.00191,0.45623 0.01961,0.69247c0.19551,-0.38623 0.40595,-0.75529 0.63188,-1.10489c0.34199,-0.21516 0.67809,-0.42352 1.00801,-0.62506c-0.19369,0.00293 -0.38634,0.00598 -0.57795,0.0092c0.2365,-0.31367 0.48793,-0.60819 0.75385,-0.88073z" fill="#FFFFFF"/>
         <path d="m27794.47156,254.76496c-0.6834,0.40248 -1.353,0.82587 -2.00707,1.26923c-0.04489,0.0087 -0.08647,0.01766 -0.12456,0.0271c-0.36642,0.26433 -0.72316,0.53667 -1.0692,0.81692c-0.63537,0.46844 -1.25422,0.95618 -1.85505,1.46216c0.39974,-0.31841 0.80832,-0.62935 1.2249,-0.93271c-0.33001,0.28797 -0.64899,0.58377 -0.95603,0.88721c0.56143,-0.50016 1.14269,-0.982 1.74216,-1.44429c0.4272,-0.29453 0.8618,-0.58122 1.30297,-0.86003c-0.06101,0.0087 -0.1187,0.01761 -0.17299,0.02685c0.62144,-0.43779 1.26031,-0.85561 1.91488,-1.25244z" fill="#FFFFFF"/>
         <path d="m27795.66922,254.62359c-0.66184,0.39996 -1.31169,0.82084 -1.9482,1.26156c-0.10005,0.00842 -0.19692,0.017 -0.29056,0.02578c-0.30373,0.26334 -0.59579,0.53506 -0.87505,0.81486c-0.62248,0.46736 -1.23035,0.95404 -1.82228,1.45886c0.43333,-0.31738 0.87296,-0.62742 1.31827,-0.93007c-0.26124,0.2878 -0.5095,0.58369 -0.74382,0.88704c0.50636,-0.49946 1.03307,-0.9806 1.57851,-1.44194c0.45085,-0.29279 0.90655,-0.578 1.36644,-0.85553c-0.11566,0.00825 -0.22819,0.01662 -0.33755,0.02525c0.56719,-0.43581 1.15254,-0.85145 1.75423,-1.2458z" fill="#FFFFFF"/>
         <path d="m27797.68379,254.49357c-0.61041,0.39778 -1.21105,0.81614 -1.80071,1.25401c-0.15166,0.00759 -0.30041,0.01535 -0.44622,0.02327c-0.2267,0.26305 -0.43977,0.5346 -0.63823,0.81387c-0.58149,0.46646 -1.15073,0.95193 -1.70657,1.45527c0.44772,-0.31589 0.89915,-0.62473 1.35368,-0.92652c-0.17967,0.28846 -0.34458,0.5848 -0.49406,0.88791c0.42756,-0.499 0.87528,-0.98015 1.34197,-1.44161c0.45384,-0.2902 0.90987,-0.57313 1.36752,-0.84872c-0.16587,0.0073 -0.32897,0.01477 -0.48916,0.0224c0.48603,-0.43362 0.99053,-0.84744 1.51179,-1.23986z" fill="#FFFFFF"/>
         <path d="m27800.43558,254.38092c-0.5307,0.39604 -1.05404,0.81209 -1.56916,1.24687c-0.1976,0.00639 -0.3927,0.01299 -0.5853,0.01972c-0.13813,0.26404 -0.26097,0.53609 -0.36796,0.81473c-0.51313,0.46567 -1.01672,0.94966 -1.50997,1.45085c0.44177,-0.31437 0.88454,-0.62205 1.32771,-0.9231c-0.08856,0.29048 -0.16115,0.5879 -0.21793,0.8908c0.32633,-0.49715 0.67178,-0.97738 1.03579,-1.43881c0.43737,-0.28842 0.87423,-0.56991 1.31015,-0.84452c-0.20917,0.00598 -0.41603,0.01217 -0.62053,0.01848c0.3814,-0.43123 0.78081,-0.84361 1.19721,-1.23503z" fill="#FFFFFF"/>
         <path d="m27803.80746,254.29103c-0.4257,0.39509 -0.84668,0.809 -1.26262,1.2406c-0.23455,0.00487 -0.46719,0.00994 -0.69788,0.01514c-0.04163,0.26602 -0.06723,0.53856 -0.07749,0.81622c-0.4203,0.46555 -0.83424,0.94826 -1.24142,1.44726c0.41494,-0.31226 0.82811,-0.61826 1.23902,-0.91811c0.0089,0.29288 0.03346,0.59112 0.07258,0.89377c0.20972,-0.4955 0.43623,-0.97561 0.6799,-1.43831c0.39955,-0.28591 0.79593,-0.56538 1.18876,-0.83853c-0.24331,0.00437 -0.48489,0.00895 -0.72466,0.0137c0.25806,-0.42871 0.53265,-0.84006 0.8238,-1.23173z" fill="#FFFFFF"/>
         <path d="m27789.34736,258.27795c-0.6001,0.50329 -1.18173,1.02482 -1.74338,1.56338c-0.01875,0.00875 -0.03377,0.01803 -0.04285,0.02842c-0.33582,0.32254 -0.66093,0.65212 -0.97442,0.98864c-0.53614,0.55898 -1.05149,1.1343 -1.54479,1.72451c0.31499,-0.37187 0.64205,-0.73747 0.98032,-1.09651c-0.29819,0.34407 -0.58449,0.6949 -0.85789,1.05225c0.47659,-0.58505 0.97569,-1.15496 1.49599,-1.70838c0.35289,-0.35182 0.71654,-0.69684 1.09012,-1.03489c-0.03813,0.00899 -0.07218,0.01832 -0.10182,0.02838c0.54631,-0.53279 1.11305,-1.04846 1.69872,-1.54581z" fill="#FFFFFF"/>
         <path d="m27790.27752,258.12009c-0.6016,0.50305 -1.18645,1.02437 -1.7531,1.56289c-0.08652,0.00899 -0.16905,0.01823 -0.24749,0.02776c-0.27372,0.32299 -0.53478,0.65328 -0.78213,0.99042c-0.54449,0.56026 -1.06983,1.1369 -1.57475,1.72863c0.3685,-0.3727 0.74681,-0.73904 1.1342,-1.09891c-0.2306,0.34535 -0.44731,0.69754 -0.6494,1.05596c0.43587,-0.58666 0.8948,-1.15818 1.37556,-1.71296c0.39869,-0.35186 0.80578,-0.69696 1.22049,-1.03526c-0.10581,0.00891 -0.20763,0.01799 -0.3055,0.02731c0.50659,-0.53304 1.03447,-1.04879 1.5821,-1.54585z" fill="#FFFFFF"/>
         <path d="m27792.26235,257.97076c-0.57632,0.50288 -1.13811,1.02387 -1.68419,1.56186c-0.1522,0.00842 -0.3006,0.017 -0.44522,0.02582c-0.19814,0.32386 -0.3818,0.65489 -0.55026,0.99232c-0.52929,0.56183 -1.04169,1.13987 -1.53607,1.73292c0.40682,-0.37315 0.82094,-0.74007 1.24174,-1.10072c-0.15125,0.34749 -0.28711,0.70146 -0.40718,1.06091c0.37436,-0.5879 0.77137,-1.16099 1.19022,-1.71758c0.4272,-0.35137 0.86021,-0.69618 1.29834,-1.03447c-0.17013,0.00817 -0.33664,0.0165 -0.49942,0.025c0.44309,-0.53287 0.90755,-1.04879 1.39204,-1.54606z" fill="#FFFFFF"/>
         <path d="m27795.23108,257.83694c-0.52443,0.50292 -1.03706,1.02338 -1.53693,1.56037c-0.21212,0.00738 -0.42089,0.01493 -0.62634,0.02265c-0.11226,0.32579 -0.20872,0.65811 -0.28929,0.99582c-0.48921,0.56315 -0.96438,1.14201 -1.42472,1.73548c0.4267,-0.37282 0.85798,-0.7397 1.29322,-1.1006c-0.06301,0.35013 -0.1099,0.70583 -0.14095,1.06603c0.29424,-0.58864 0.60977,-1.16326 0.94627,-1.72199c0.43646,-0.35042 0.87591,-0.69457 1.31786,-1.03253c-0.22783,0.00701 -0.45253,0.01419 -0.67396,0.02153c0.35806,-0.53254 0.73655,-1.04875 1.13484,-1.54676z" fill="#FFFFFF"/>
         <path d="m27799.06307,257.72503c-0.44744,0.50317 -0.88631,1.02301 -1.316,1.55856c-0.26319,0.00594 -0.52361,0.01209 -0.78131,0.01836c-0.01916,0.32777 -0.02242,0.66083 -0.01053,0.99817c-0.42561,0.565 -0.84069,1.14498 -1.24474,1.73894c0.42638,-0.37158 0.85449,-0.73755 1.28368,-1.098c0.03078,0.35265 0.07703,0.70967 0.13786,1.07032c0.19928,-0.58926 0.41721,-1.16544 0.65421,-1.72694c0.42452,-0.34869 0.84918,-0.69156 1.27356,-1.02866c-0.27504,0.00549 -0.54763,0.0111 -0.81763,0.01691c0.25507,-0.53172 0.52865,-1.04821 0.8209,-1.54767z" fill="#FFFFFF"/>
         <path d="m27803.59116,257.64051c-0.3483,0.50367 -0.69184,1.02276 -1.03043,1.55654c-0.3025,0.00421 -0.60301,0.00862 -0.90156,0.01316c0.07622,0.33091 0.16691,0.66598 0.27091,1.00473c-0.34022,0.56562 -0.67423,1.14511 -1.0017,1.73767c0.40627,-0.37022 0.81132,-0.73533 1.21459,-1.0954c0.12433,0.35516 0.26219,0.71392 0.4124,1.07597c0.09387,-0.58934 0.20245,-1.1666 0.32674,-1.73057c0.39311,-0.34687 0.78354,-0.68842 1.17079,-1.02478c-0.31045,0.00367 -0.61921,0.00751 -0.92621,0.01151c0.13931,-0.5306 0.29379,-1.04738 0.46447,-1.54882z" fill="#FFFFFF"/>
         <path d="m27785.58111,262.33953c-0.50686,0.58901 -0.99266,1.1932 -1.45622,1.81126c-0.05829,0.00833 -0.11194,0.01695 -0.16083,0.02607c-0.23845,0.37327 -0.46342,0.75269 -0.67409,1.1376c-0.43582,0.63529 -0.84863,1.28362 -1.23725,1.94342c0.27558,-0.41349 0.56397,-0.82208 0.86443,-1.22538c-0.19229,0.39076 -0.37009,0.78701 -0.53283,1.18805c0.34327,-0.65584 0.71186,-1.30012 1.10479,-1.93113c0.31689,-0.39914 0.64545,-0.79275 0.98486,-1.18058c-0.0808,0.00837 -0.15693,0.01695 -0.22842,0.02586c0.4218,-0.61281 0.86738,-1.21173 1.33557,-1.79517z" fill="#FFFFFF"/>
         <path d="m27787.26176,262.18963c-0.50455,0.59112 -0.99003,1.19737 -1.45532,1.81748c-0.13554,0.00813 -0.2666,0.01642 -0.39311,0.02492c-0.16469,0.37575 -0.3143,0.7574 -0.44831,1.14399c-0.44109,0.63876 -0.86107,1.29051 -1.25881,1.9539c0.3326,-0.4156 0.67591,-0.82612 1.02907,-1.23144c-0.1148,0.39398 -0.21385,0.79295 -0.29696,1.19601c0.2966,-0.6593 0.61812,-1.3073 0.96402,-1.94223c0.36646,-0.4005 0.74218,-0.79543 1.12649,-1.18475c-0.15747,0.00796 -0.31054,0.01609 -0.45916,0.02442c0.37382,-0.61508 0.77151,-1.21643 1.19208,-1.8023z" fill="#FFFFFF"/>
         <path d="m27790.14892,262.05115c-0.47926,0.59318 -0.94223,1.20117 -1.38791,1.82276c-0.20836,0.00738 -0.41263,0.01489 -0.61272,0.02256c-0.08157,0.3788 -0.14717,0.7628 -0.19683,1.15084c-0.42643,0.64214 -0.83447,1.29691 -1.22326,1.96322c0.37559,-0.417 0.7593,-0.82905 1.15045,-1.2361c-0.02991,0.39757 -0.04371,0.79931 -0.04185,1.20422c0.23541,-0.66301 0.49429,-1.31522 0.7765,-1.95485c0.39978,-0.4005 0.80619,-0.79559 1.21854,-1.18537c-0.22851,0.0071 -0.45307,0.01436 -0.67359,0.02174c0.30759,-0.61677 0.63796,-1.22043 0.99067,-1.80903z" fill="#FFFFFF"/>
         <path d="m27794.13397,261.9307c-0.43128,0.59516 -0.84968,1.20442 -1.25449,1.82685c-0.27368,0.00623 -0.54381,0.01262 -0.81032,0.01918c0.0079,0.38247 0.03164,0.76903 0.07054,1.15888c-0.39138,0.64491 -0.76801,1.3019 -1.12912,1.97003c0.40164,-0.41819 0.80864,-0.83169 1.22036,-1.24044c0.0586,0.40157 0.1325,0.80632 0.22075,1.21371c0.16097,-0.66466 0.34254,-1.31922 0.54522,-1.96211c0.41599,-0.40128 0.83579,-0.79749 1.25876,-1.18871c-0.29025,0.00586 -0.57713,0.01184 -0.86066,0.01803c0.22565,-0.61813 0.47191,-1.22385 0.73896,-1.81542z" fill="#FFFFFF"/>
         <path d="m27799.04922,261.83426c-0.3621,0.59689 -0.7154,1.20702 -1.05953,1.82957c-0.32656,0.00479 -0.6504,0.00969 -0.97142,0.01477c0.09878,0.38552 0.2119,0.77431 0.33836,1.1659c-0.33736,0.64755 -0.66429,1.30635 -0.98027,1.9758c0.40895,-0.41824 0.82022,-0.8321 1.2333,-1.24163c0.14621,0.40458 0.30568,0.8118 0.47749,1.22138c0.07849,-0.66652 0.17358,-1.3236 0.28621,-1.97003c0.4119,-0.40075 0.82457,-0.79675 1.23747,-1.18821c-0.33913,0.00429 -0.67577,0.00875 -1.00987,0.01337c0.132,-0.61896 0.28117,-1.22637 0.44826,-1.82091z" fill="#FFFFFF"/>
         <path d="m27781.89597,267.14357c-0.38448,0.65559 -0.74454,1.32269 -1.07918,1.99977c-0.01979,0.00631 -0.03523,0.01283 -0.04317,0.02108c-0.19683,0.41036 -0.37958,0.8255 -0.54767,1.24473c-0.3025,0.68797 -0.57922,1.38493 -0.82934,2.08924c0.16351,-0.43907 0.34195,-0.87521 0.53469,-1.30771c-0.14944,0.42323 -0.28403,0.8505 -0.40332,1.28111c0.23296,-0.70224 0.49266,-1.39686 0.77845,-2.08206c0.21181,-0.43082 0.43777,-0.85784 0.67727,-1.28053c-0.04435,0.00664 -0.08357,0.01349 -0.11748,0.02108c0.31794,-0.67296 0.66147,-1.33576 1.02975,-1.98669z" fill="#FFFFFF"/>
         <path d="m27783.04624,267.01293c-0.39992,0.65971 -0.77691,1.33114 -1.12993,2.01276c-0.10563,0.00668 -0.20618,0.01357 -0.30164,0.02067c-0.12388,0.41403 -0.23237,0.83243 -0.32502,1.25434c-0.32284,0.69317 -0.62121,1.39558 -0.89416,2.10566c0.23328,-0.44286 0.47999,-0.88226 0.73941,-1.31778c-0.07358,0.42743 -0.13132,0.85838 -0.17318,1.29187c0.1971,-0.70757 0.42071,-1.40771 0.67051,-2.0986c0.27722,-0.43395 0.56683,-0.86374 0.86801,-1.28911c-0.1301,0.00664 -0.25516,0.01341 -0.37518,0.02034c0.28144,-0.67741 0.58871,-1.34467 0.92117,-2.00014z" fill="#FFFFFF"/>
         <path d="m27785.58288,266.88893c-0.39769,0.66384 -0.77487,1.33915 -1.13057,2.02473c-0.1892,0.00627 -0.37359,0.01271 -0.55312,0.01926c-0.04326,0.41774 -0.07045,0.83911 -0.0818,1.26321c-0.32969,0.69865 -0.63719,1.40647 -0.92158,2.12208c0.29469,-0.4462 0.60074,-0.88874 0.9174,-1.32739c0.0079,0.43201 0.03173,0.86675 0.071,1.30338c0.1513,-0.71247 0.32765,-1.41789 0.52911,-2.11449c0.33151,-0.43639 0.67309,-0.86856 1.02399,-1.29641c-0.21212,0.00611 -0.41962,0.01233 -0.62234,0.01869c0.23119,-0.68133 0.4873,-1.35292 0.76792,-2.01305z" fill="#FFFFFF"/>
         <path d="m27789.42235,266.77735c-0.37699,0.66763 -0.73683,1.34637 -1.07869,2.03512c-0.26596,0.00553 -0.52761,0.01118 -0.78494,0.01695c0.04163,0.42178 0.09882,0.84633 0.17086,1.27294c-0.32107,0.70344 -0.62321,1.41571 -0.90569,2.13569c0.3434,-0.44855 0.6957,-0.89348 1.05608,-1.33473c0.09133,0.43618 0.19755,0.8743 0.31785,1.31378c0.09737,-0.71681 0.21703,-1.42693 0.35952,-2.12892c0.37141,-0.43812 0.75017,-0.87211 1.13565,-1.30206c-0.28616,0.00524 -0.56819,0.01064 -0.84613,0.01613c0.16918,-0.68463 0.36097,-1.36014 0.5755,-2.02489z" fill="#FFFFFF"/>
         <path d="m27794.41223,266.6838c-0.33814,0.67098 -0.6632,1.35239 -0.97464,2.04341c-0.33169,0.00446 -0.65984,0.00908 -0.98445,0.01378c0.12633,0.42463 0.26664,0.85136 0.41994,1.27983c-0.29683,0.70835 -0.5789,1.42503 -0.84564,2.14922c0.37631,-0.44963 0.75857,-0.89583 1.14619,-1.33865c0.17272,0.43919 0.35834,0.87991 0.55593,1.32182c0.03781,-0.72077 0.09401,-1.43526 0.16941,-2.14229c0.39333,-0.43865 0.79107,-0.87351 1.19267,-1.30466c-0.34703,0.00413 -0.69089,0.00833 -1.03139,0.01271c0.09814,-0.68735 0.21521,-1.36621 0.35198,-2.03516z" fill="#FFFFFF"/>
         <path d="m27800.33495,266.61293c-0.28226,0.67362 -0.55643,1.35684 -0.82203,2.04923c-0.38253,0.00318 -0.76257,0.00648 -1.13997,0.0099c0.20627,0.4283 0.42411,0.85846 0.65262,1.29043c-0.25756,0.71087 -0.5055,1.42944 -0.74327,2.15508c0.39184,-0.45033 0.78658,-0.89752 1.18368,-1.34179c0.24662,0.44191 0.5035,0.88523 0.76983,1.32999c-0.02451,-0.72361 -0.0355,-1.44116 -0.03214,-2.15186c0.39728,-0.43878 0.79597,-0.87409 1.19539,-1.30615c-0.39288,0.00276 -0.78358,0.00565 -1.17201,0.00866c0.02129,-0.68958 0.05692,-1.37103 0.1079,-2.04349z" fill="#FFFFFF"/>
         <path d="m27779.32747,274.40485c0.17159,-0.71796 0.37041,-1.42982 0.59602,-2.13375c-0.27005,0.70682 -0.51426,1.4214 -0.73183,2.14204c-0.06509,0.00429 -0.12483,0.0087 -0.17908,0.01341c-0.07994,0.43964 -0.14426,0.88214 -0.19283,1.32665c-0.1843,0.72699 -0.34168,1.45914 -0.47159,2.19464c0.11789,-0.45594 0.25112,-0.91043 0.3991,-1.36278c-0.02892,0.44839 -0.0419,0.8988 -0.03908,1.35028c0.08325,-0.73516 0.1941,-1.4669 0.33237,-2.19344c0.16718,-0.4526 0.34908,-0.90293 0.5449,-1.35037c-0.09138,0.00433 -0.1774,0.00875 -0.25797,0.01332z" fill="#FFFFFF"/>
         <path d="m27781.41122,274.33134c0.13364,-0.72361 0.29365,-1.44145 0.4799,-2.15165c-0.2853,0.71252 -0.54658,1.43283 -0.78304,2.15949c-0.15556,0.00417 -0.30586,0.00846 -0.45085,0.01283c-0.00177,0.44439 0.01239,0.89092 0.04222,1.33873c-0.20522,0.73335 -0.38516,1.47197 -0.53909,2.21427c0.19043,-0.46039 0.39488,-0.91877 0.61259,-1.37475c0.04989,0.4533 0.11553,0.90783 0.19628,1.36287c0.04871,-0.74143 0.12379,-1.47969 0.22533,-2.21312c0.23564,-0.4566 0.48426,-0.91043 0.74509,-1.36126c-0.18135,0.00413 -0.35747,0.00829 -0.52843,0.01258zm-0.38834,0.97994l0,0l0,0l0,0z" fill="#FFFFFF"/>
         <path d="m27784.98069,274.2634c0.08843,-0.72881 0.201,-1.45213 0.33809,-2.16836c-0.28784,0.71792 -0.55457,1.44347 -0.79938,2.17545c-0.24122,0.0038 -0.47758,0.00767 -0.70909,0.01163c0.07885,0.44901 0.17295,0.89938 0.28158,1.35053c-0.2173,0.73941 -0.41204,1.48398 -0.58353,2.23242c0.25606,-0.46419 0.52416,-0.92607 0.80346,-1.38551c0.12869,0.45784 0.27191,0.91629 0.42883,1.37483c0.01108,-0.74803 0.04598,-1.49313 0.10522,-2.23386c0.29479,-0.45899 0.60024,-0.91514 0.91563,-1.36835c-0.26496,0.00367 -0.52525,0.00738 -0.78081,0.01122z" fill="#FFFFFF"/>
         <path d="m27789.90502,274.20437c0.03804,-0.73331 0.09687,-1.46145 0.17703,-2.18313c-0.2769,0.72279 -0.5366,1.45279 -0.77841,2.18911c-0.31834,0.00322 -0.63251,0.00652 -0.94246,0.00994c0.15851,0.45342 0.33065,0.90767 0.51553,1.36249c-0.2193,0.74444 -0.41994,1.49384 -0.60115,2.24711c0.31085,-0.46765 0.63124,-0.93304 0.96034,-1.39611c0.2035,0.46221 0.41953,0.92462 0.64722,1.38712c-0.02855,-0.75224 -0.03713,-1.50176 -0.02492,-2.24735c0.34181,-0.46225 0.69171,-0.92174 1.04886,-1.37846c-0.33795,0.00297 -0.67201,0.00606 -1.00206,0.00928zm-0.48044,0.99343l0,0l0,0l0,0z" fill="#FFFFFF"/>
         <path d="m27795.97785,274.15722c-0.01507,-0.73702 -0.01389,-1.46909 0.0044,-2.19525c-0.25248,0.72679 -0.49252,1.46026 -0.71958,2.19979c-0.38108,0.00248 -0.75893,0.00503 -1.13343,0.00767c0.23169,0.45668 0.47463,0.91406 0.72798,1.37198c-0.21094,0.74898 -0.40804,1.50246 -0.59052,2.25977c0.3518,-0.46972 0.71023,-0.93737 1.07451,-1.40296c0.26973,0.46518 0.5494,0.93056 0.83819,1.39615c-0.06709,-0.75641 -0.11893,-1.51005 -0.15475,-2.26022c0.37259,-0.46373 0.75026,-0.92499 1.13234,-1.38382c-0.39606,0.00219 -0.78912,0.0045 -1.17914,0.00689z" fill="#FFFFFF"/>
         <path d="m27777.87198,279.98464c0.05193,-0.73632 0.13169,-1.47061 0.23918,-2.20111c-0.12433,0.73174 -0.22107,1.4669 -0.28997,2.20379c-0.01952,0.00128 -0.03368,0.00223 -0.0419,0.00433c-0.03382,0.45441 -0.05179,0.91019 -0.05393,1.36645c-0.03427,0.73813 -0.04058,1.47696 -0.01893,2.21477c-0.00481,-0.45652 0.00626,-0.91382 0.03318,-1.37107c0.01748,0.45784 0.05084,0.91613 0.09991,1.37404c-0.03858,-0.73978 -0.04925,-1.48026 -0.03196,-2.21967c0.04666,-0.45899 0.10917,-0.9179 0.18734,-1.37586c-0.04657,0.00132 -0.08756,0.00276 -0.12293,0.00433z" fill="#FFFFFF"/>
         <path d="m27779.21689,279.96043c0.0212,-0.743 0.06959,-1.48422 0.14535,-2.2219c-0.15007,0.73834 -0.27363,1.48043 -0.37014,2.2245c-0.11362,0.0014 -0.2217,0.00281 -0.3242,0.00425c0.04303,0.45953 0.10195,0.91967 0.1764,1.37965c-0.06269,0.74494 -0.09819,1.49091 -0.10618,2.23609c0.07181,-0.46159 0.15933,-0.92326 0.26206,-1.38432c0.09396,0.46291 0.20336,0.92549 0.32774,1.38716c-0.06677,-0.74659 -0.10663,-1.49412 -0.11925,-2.24092c0.12265,-0.46394 0.26047,-0.9271 0.4129,-1.38881c-0.1404,0.00144 -0.27531,0.00285 -0.40468,0.00429z" fill="#FFFFFF"/>
         <path d="m27782.12816,279.93749c-0.01135,-0.74931 0.00263,-1.49709 0.04226,-2.24174c-0.16973,0.74477 -0.31517,1.4933 -0.43564,2.24418c-0.20518,0.00128 -0.40509,0.00264 -0.59969,0.004c0.1202,0.46402 0.25538,0.92796 0.40491,1.39133c-0.08952,0.75191 -0.15379,1.50497 -0.1922,2.25762c0.14794,-0.46658 0.3104,-0.93263 0.48675,-1.39764c0.1685,0.46774 0.35112,0.93465 0.54713,1.40028c-0.09265,-0.75306 -0.16065,-1.50724 -0.20345,-2.26101c0.19519,-0.4684 0.40405,-0.93547 0.62575,-1.40094c-0.23055,0.00132 -0.45575,0.0026 -0.67582,0.00392z" fill="#FFFFFF"/>
         <path d="m27786.51263,279.91687c-0.04412,-0.75509 -0.06618,-1.50873 -0.06546,-2.25969c-0.18198,0.75067 -0.34304,1.50501 -0.48244,2.26179c-0.28952,0.00116 -0.57436,0.00231 -0.8544,0.00351c0.19392,0.46827 0.40105,0.93605 0.62062,1.40308c-0.11262,0.75797 -0.20314,1.51714 -0.27086,2.27619c0.21889,-0.47067 0.45044,-0.94046 0.69379,-1.40911c0.23695,0.47166 0.48603,0.9422 0.74627,1.41142c-0.11485,-0.75896 -0.20854,-1.519 -0.2803,-2.27895c0.26038,-0.47207 0.53215,-0.94265 0.8145,-1.41158c-0.31172,0.00107 -0.61899,0.00219 -0.92171,0.00334z" fill="#FFFFFF"/>
         <path d="m27792.19748,279.89963c-0.07553,-0.75999 -0.13328,-1.51859 -0.1724,-2.27487c-0.1858,0.75575 -0.35511,1.51487 -0.50723,2.27656c-0.36192,0.00091 -0.71999,0.0019 -1.0741,0.00285c0.25951,0.47087 0.52988,0.94112 0.81014,1.41068c-0.13037,0.76408 -0.2429,1.52923 -0.33682,2.29446c0.28062,-0.47339 0.57132,-0.94583 0.87128,-1.41728c0.29583,0.47417 0.60115,0.94719 0.91509,1.41913c-0.13214,-0.76437 -0.24753,-1.52968 -0.34549,-2.29504c0.3134,-0.47446 0.63546,-0.94752 0.96543,-1.41913c-0.37885,0.00087 -0.75417,0.00173 -1.12589,0.00264z" fill="#FFFFFF"/>
         <path d="m27798.93379,279.88663c-0.10381,-0.76387 -0.19501,-1.52622 -0.27286,-2.28642c-0.18071,0.75971 -0.35021,1.52246 -0.50773,2.28761c-0.41807,0.00066 -0.83333,0.00136 -1.24573,0.00206c0.31381,0.47421 0.6356,0.94793 0.96461,1.42124c-0.14235,0.76742 -0.27204,1.53562 -0.38839,2.30403c0.32987,-0.47566 0.66697,-0.95053 1.0105,-1.42474c0.34086,0.47619 0.68826,0.95152 1.04137,1.42606c-0.14322,-0.76824 -0.27508,-1.53719 -0.39488,-2.30622c0.35266,-0.47628 0.71095,-0.95135 1.07424,-1.4254c-0.42951,0.00058 -0.85658,0.00116 -1.28114,0.00177z" fill="#FFFFFF"/>
        </g>
       </g>
       <path d="m27802.36286,278.35885c5.74051,-0.00998 11.64711,-0.01238 17.55362,-0.00738c5.74037,0.00487 11.15486,0.01634 16.0959,0.03572c4.33758,0.01704 7.96284,0.0377 10.79103,0.06922c1.97217,0.02199 3.42458,0.0646 3.23887,0.08518c-0.35248,-2.63713 -1.05749,-5.23733 -2.09364,-7.72142c0.19397,-0.0672 -1.22009,-0.17494 -3.08912,-0.23587c-2.67068,-0.08696 -6.08858,-0.14413 -10.17232,-0.19119c-4.6472,-0.05354 -9.73641,-0.08514 -15.12947,-0.09855c-5.5479,-0.01378 -11.09594,-0.00722 -16.48905,0.02034c-0.35348,2.61304 -0.58735,5.30366 -0.70582,8.04396z" fill="#FFFFFF"/>
       <path d="m27808.68653,252.69424c5.32207,-0.06621 10.646,-0.03993 15.4145,0.09335c3.73262,0.10453 7.11911,-0.08535 6.7768,0.52058c-2.58861,-1.23433 -5.34404,-2.18399 -8.18236,-2.82011c0.09533,-0.36692 -1.6117,-0.23319 -3.53434,-0.29143c-2.43863,-0.07376 -5.15275,-0.08832 -7.86574,-0.05173c-0.94931,0.56121 -1.82164,1.45023 -2.60886,2.54935z" fill="#FFFFFF"/>
       <circle r="0" cy="249.52944" cx="27814.00815" fill="#FFFFFF"/>
       <path d="m27780.06761,294.20937c-0.11453,0.03964 0.78204,0.14623 2.05215,0.19821c1.84016,0.0752 4.22813,0.12701 7.12628,0.17337c3.36089,0.05371 7.12669,0.09191 11.22913,0.11868c4.36272,0.02842 8.90294,0.0422 13.53298,0.04224c4.63005,0 9.17026,-0.01378 13.53298,-0.04224c4.10244,-0.02677 7.86824,-0.06497 11.22913,-0.11868c2.89819,-0.04637 5.28612,-0.09818 7.12633,-0.17337c1.27006,-0.05193 2.16663,-0.15857 2.05215,-0.19821c1.03533,-2.48219 1.74007,-5.08034 2.09282,-7.71544c0.09446,0.01048 -0.80619,0.05292 -2.14325,0.07169c-1.94575,0.02727 -4.47498,0.04599 -7.54953,0.06282c-3.56961,0.01951 -7.57241,0.03333 -11.9359,0.04307c-4.64257,0.01031 -9.47544,0.01535 -14.40467,0.01535c-4.92923,0 -9.7621,-0.00499 -14.40467,-0.01535c-4.3635,-0.00974 -8.36629,-0.0236 -11.9359,-0.04307c-3.07455,-0.01679 -5.60378,-0.03556 -7.54953,-0.06282c-1.33707,-0.01877 -2.23772,-0.06122 -2.14325,-0.07169c0.35271,2.63511 1.05744,5.23325 2.09278,7.71544z" fill="#FFFFFF"/>
       <path d="m27804.42894,263.06958c4.72351,-0.0384 9.58075,-0.04756 14.43781,-0.02838c4.72351,0.01873 9.18478,0.06291 13.26371,0.13765c3.59126,0.06588 6.60512,0.14611 8.96739,0.2678c1.66449,0.08584 2.97087,0.21421 2.78448,0.33182c-1.66081,-2.18618 -3.61487,-4.19073 -5.80274,-5.95265c0.14785,-0.15279 -0.95544,-0.26012 -2.31847,-0.35112c-1.91679,-0.12779 -4.35106,-0.2124 -7.24099,-0.28162c-6.84629,-0.16368 -14.51121,-0.19586 -22.17427,-0.11447c-0.74654,1.81612 -1.37964,3.82505 -1.91692,5.99098z" fill="#FFFFFF"/>
       <path d="m27805.32088,314.54148c-0.06714,0.25658 1.12067,0.19697 2.49564,0.25443c1.80489,0.07528 3.91868,0.10655 6.19163,0.10659c2.27294,-0.00004 4.38678,-0.03127 6.19163,-0.10659c1.37497,-0.05746 2.56278,0.00215 2.49564,-0.25443c2.83832,-0.63608 5.5937,-1.58578 8.18236,-2.82011c0.23632,0.41667 -2.09854,0.35116 -4.7556,0.45396c-3.51677,0.13584 -7.65457,0.19214 -12.11403,0.19223c-4.4595,-0.00008 -8.59726,-0.05635 -12.11403,-0.19223c-2.65706,-0.1028 -4.99188,-0.03729 -4.7556,-0.45396c2.58861,1.23437 5.34404,2.18403 8.18236,2.82011z" fill="#FFFFFF"/>
       <path d="m27789.9367,307.20372c-0.44091,0.45804 2.8962,0.42611 6.67035,0.55123c2.37889,0.07879 5.0345,0.13476 7.9188,0.17395c3.06047,0.04154 6.24111,0.06163 9.48234,0.06167c3.24123,0 6.42186,-0.02013 9.48234,-0.06167c2.8843,-0.03919 5.53991,-0.09516 7.9188,-0.17395c3.77415,-0.12511 7.11121,-0.09323 6.67035,-0.55123c2.18783,-1.76192 4.14193,-3.76652 5.80274,-5.9527c0.1222,0.07706 -0.7272,0.20563 -1.86313,0.27893c-1.6324,0.10523 -3.74369,0.17808 -6.2983,0.24305c-2.95584,0.07512 -6.26267,0.12849 -9.86069,0.16591c-3.82272,0.03968 -7.79869,0.05891 -11.85211,0.05895c-4.05341,0 -8.02938,-0.01922 -11.85211,-0.05895c-3.59798,-0.03741 -6.90485,-0.09079 -9.86069,-0.16591c-2.55461,-0.06497 -4.66586,-0.13782 -6.2983,-0.24305c-1.13593,-0.0733 -1.98533,-0.20188 -1.86313,-0.27893c1.66081,2.18618 3.61487,4.19077 5.80274,5.9527z" fill="#FFFFFF"/>
       <path d="m27811.29534,250.14489c2.71299,-0.03659 5.42711,-0.02203 7.86574,0.05173c1.92264,0.05829 3.62966,-0.07549 3.53434,0.29143c-2.8385,-0.63546 -5.76393,-0.95828 -8.68727,-0.95861l0,0c-0.89666,-0.11649 -1.86327,0.11385 -2.71281,0.61545z" fill="#B22134"/>
       <path d="m27806.34591,257.07864c7.66306,-0.08139 15.32798,-0.04921 22.17427,0.11447c2.88989,0.06918 5.3242,0.15382 7.24099,0.28162c1.36303,0.091 2.46632,0.19829 2.31847,0.35112c-2.18833,-1.76143 -4.61352,-3.28278 -7.20181,-4.51768c0.34236,-0.60588 -3.04413,-0.41601 -6.7768,-0.52058c-4.7685,-0.13328 -10.09238,-0.15951 -15.4145,-0.09335c-0.881,1.23082 -1.65269,2.71187 -2.34062,4.3844z" fill="#B22134"/>
       <path d="m27803.06873,270.31489c5.39316,-0.02751 10.94115,-0.03411 16.48905,-0.02034c5.39307,0.01345 10.48227,0.04505 15.12947,0.09855c4.08374,0.04707 7.50164,0.10424 10.17232,0.19119c1.86908,0.06093 3.28313,0.16867 3.08912,0.23587c-1.03679,-2.48384 -2.40613,-4.85515 -4.06635,-7.0417c0.18639,-0.1176 -1.11999,-0.24598 -2.78448,-0.33182c-2.36232,-0.12169 -5.37613,-0.20192 -8.96739,-0.2678c-4.07892,-0.07475 -8.5402,-0.11888 -13.26371,-0.13765c-4.85706,-0.01922 -9.7143,-0.01007 -14.43781,0.02838c-0.5671,2.28732 -1.01731,4.71222 -1.36022,7.24531z" fill="#B22134"/>
       <path d="m27802.36313,286.67695c-3.65563,-0.00639 -7.1216,-0.01568 -10.35662,-0.02838c-2.96628,-0.01167 -5.63047,-0.02566 -7.96374,-0.04348c-1.97852,-0.0151 -3.58345,-0.03102 -4.801,-0.0535c-0.82176,-0.01518 -1.29839,-0.0542 -1.26702,-0.05767l0,0c-0.09446,0.01048 0.80619,0.05292 2.14325,0.07169c1.94575,0.02727 4.47498,0.04599 7.54953,0.06282c3.56961,0.01951 7.57241,0.03333 11.9359,0.04307c4.64257,0.01031 9.47544,0.01535 14.40467,0.01535c4.92923,0 9.7621,-0.00499 14.40467,-0.01535c4.3635,-0.00974 8.36629,-0.0236 11.9359,-0.04307c3.07455,-0.01679 5.60374,-0.03556 7.54953,-0.06282c1.33707,-0.01877 2.23772,-0.06122 2.14325,-0.07169c0.3523,-2.63717 0.35257,-5.31513 0.00082,-7.95234c0.18566,-0.02058 -1.26671,-0.0632 -3.23887,-0.08518c-2.82815,-0.03147 -6.45346,-0.05214 -10.79103,-0.06922c-4.94108,-0.01939 -10.35553,-0.03086 -16.0959,-0.03572c-5.90651,-0.00499 -11.81311,-0.0026 -17.55362,0.00738c-0.11938,2.7681 -0.11929,5.55005 0.00027,8.31811z" fill="#B22134"/>
       <path d="m27784.13396,301.25103c-0.1222,0.07706 0.7272,0.20563 1.86313,0.27893c1.6324,0.10523 3.74369,0.17808 6.2983,0.24305c2.95584,0.07512 6.26267,0.12849 9.86069,0.16591c3.82272,0.03968 7.79869,0.05891 11.85211,0.05895c4.05341,0 8.02938,-0.01922 11.85211,-0.05895c3.59798,-0.03741 6.90485,-0.09079 9.86069,-0.16591c2.55461,-0.06497 4.66586,-0.13782 6.2983,-0.24305c1.13593,-0.0733 1.98533,-0.20188 1.86313,-0.27893c1.66022,-2.18655 3.02956,-4.55782 4.06635,-7.04166c0.11453,0.03964 -0.78204,0.14623 -2.05215,0.19821c-1.84016,0.0752 -4.22813,0.12701 -7.12633,0.17337c-3.36089,0.05371 -7.12669,0.09191 -11.22913,0.11868c-4.36272,0.02842 -8.90294,0.0422 -13.53298,0.04224c-4.63005,0 -9.17026,-0.01378 -13.53298,-0.04224c-4.10244,-0.02677 -7.86824,-0.06497 -11.22913,-0.11868c-2.89819,-0.04637 -5.28612,-0.09818 -7.12628,-0.17337c-1.27011,-0.05193 -2.16663,-0.15857 -2.05215,-0.19821c1.03674,2.48384 2.40608,4.85511 4.0663,7.04166z" fill="#B22134"/>
       <path d="m27797.13852,311.72141c-0.23632,0.41667 2.09854,0.35116 4.7556,0.45396c3.51677,0.13584 7.65457,0.19214 12.11403,0.19223c4.4595,-0.00008 8.59726,-0.05635 12.11403,-0.19223c2.65706,-0.1028 4.99188,-0.03729 4.7556,-0.45396c2.58829,-1.23491 5.01353,-2.75622 7.20181,-4.51768c0.44091,0.45804 -2.8962,0.42611 -6.67035,0.55123c-2.37889,0.07879 -5.0345,0.13476 -7.9188,0.17395c-3.06047,0.04154 -6.24111,0.06163 -9.48234,0.06167c-3.24123,0 -6.42186,-0.02013 -9.48234,-0.06167c-2.8843,-0.03919 -5.53991,-0.09516 -7.9188,-0.17395c-3.77415,-0.12511 -7.11121,-0.09323 -6.67035,-0.55123c2.18838,1.76143 4.61361,3.28278 7.20191,4.51768z" fill="#B22134"/>
       <path d="m27814.00815,315.50009l0,0c2.92334,-0.00033 5.84882,-0.32311 8.68727,-0.95861c0.06714,0.25658 -1.12067,0.19697 -2.49564,0.25443c-1.80489,0.07528 -3.91868,0.10655 -6.19163,0.10659c-2.27294,-0.00004 -4.38678,-0.03127 -6.19163,-0.10659c-1.37497,-0.05746 -2.56278,0.00215 -2.49564,-0.25443c2.83846,0.6355 5.76393,0.95828 8.68727,0.95861z" fill="#B22134"/>
      </g>
     </g>
    </g>
   </g>
  </g>
  <g>
   <g>
    <g>
     <g>
      <path d="m27684.0108,266.50001l0,0c-20.05633,-0.01417 -38.73008,-16.82068 -38.74582,-34.87152c0.01575,-18.05084 18.6895,-34.85734 38.74582,-34.87152l0,0c20.05633,0.01417 38.73008,16.82068 38.74582,34.87152c-0.01575,18.05084 -18.6895,34.85734 -38.74582,34.87152z" fill="#00247D"/>
      <g>
       <path d="m27684.0108,196.75697l0,0c-3.77412,-0.19661 -7.74007,1.06531 -11.04913,3.40824c2.71937,-1.19148 5.1814,-2.11272 7.30743,-2.74539c1.68484,-0.50107 2.98197,-0.83448 3.7417,-0.66285z" fill="#00247D"/>
       <path d="m27650.4559,214.19273c-2.24518,3.5013 -3.80942,7.36275 -4.59496,11.34302c0.60015,-4.06944 2.90506,-8.07067 6.18394,-11.57634c-0.9848,0.06164 -1.68868,0.18126 -1.58898,0.23332z" fill="#00247D"/>
       <path d="m27677.2411,197.29335c-4.42249,0.707 -8.71291,2.11482 -12.60321,4.1355c-0.05887,-0.09249 0.41956,-0.17014 1.02121,-0.23205c3.13383,-2.00816 7.22197,-3.23801 11.582,-3.90345z" fill="#00247D"/>
       <path d="m27684.0108,196.75697l0,0c-5.84314,-0.04056 -11.32388,0.9033 -14.34405,3.52943c4.38287,-2.42742 9.42889,-3.67989 14.34405,-3.52943z" fill="#00247D"/>
       <path d="m27652.04488,213.95937c-3.27888,3.50568 -5.58375,7.50695 -6.18394,11.57634c-0.39603,2.00974 -0.59577,4.05167 -0.59597,6.09278c-0.30187,-6.14707 3.48144,-12.53923 9.11263,-17.78007c-0.88826,0.03356 -1.66666,0.0693 -2.33272,0.11095z" fill="#FFFFFF"/>
       <path d="m27662.93632,213.64c-0.18764,0.46077 -0.36759,0.92684 -0.53987,1.39785c2.8355,5.52014 8.34439,10.92526 14.53286,16.59064c2.34507,0 4.70866,0 7.08149,0l0,0c-6.97999,-6.28204 -13.57183,-12.07002 -17.35971,-18.04086c-1.27812,0.01553 -2.5172,0.03294 -3.71477,0.05237z" fill="#FFFFFF"/>
       <path d="m27656.47267,213.77951c-6.08094,5.28861 -10.6338,11.55171 -11.14451,17.84898c0.06251,0 0.14,0 0.23236,0c0.84767,-5.80176 5.00878,-11.50429 10.49342,-16.46609c0.22142,-0.46895 0.45256,-0.93266 0.69319,-1.39068c-0.09212,0.00258 -0.1836,0.00516 -0.27446,0.00779z" fill="#FFFFFF"/>
       <path d="m27684.0108,227.36568c0,-0.70577 0,-1.4094 0,-2.11054c-4.52263,-4.06462 -8.70178,-7.89672 -11.87449,-11.7212c-0.63306,0.00481 -1.26081,0.01002 -1.88298,0.01566c3.47128,4.52365 8.41765,9.01317 13.75747,13.81607z" fill="#FFFFFF"/>
       <path d="m27668.42912,201.01208c0.40711,-0.25213 0.81982,-0.49415 1.23762,-0.72572c3.02013,-2.62613 8.50092,-3.56999 14.34405,-3.52943l0,0c-6.65658,0.00144 -13.11255,1.20693 -16.96713,4.33049c0.42938,-0.02717 0.89152,-0.05202 1.38545,-0.07534z" fill="#FFFFFF"/>
       <path d="m27672.00433,200.88346c0.07146,-0.00197 0.14316,-0.00389 0.2151,-0.00582c3.01449,-1.42226 5.73031,-2.52393 8.04179,-3.29861c1.78201,-0.59692 3.10612,-1.04107 3.74953,-0.82206l0,0c-0.75973,-0.17163 -2.05686,0.16179 -3.7417,0.66281c-2.12603,0.63267 -4.58806,1.55391 -7.30743,2.74539c-0.32375,0.22947 -0.64297,0.46904 -0.95729,0.71829z" fill="#FFFFFF"/>
       <path d="m27677.26283,200.78043c3.14467,-1.7433 5.49664,-2.91348 6.74797,-3.75746c0,-0.20912 0,-0.29759 0,-0.266l0,0c-0.01434,-1.09222 -4.67483,1.49633 -9.87776,4.07552c1.01227,-0.02091 2.05681,-0.03815 3.12979,-0.05206z" fill="#FFFFFF"/>
       <path d="m27666.058,201.15948c3.45495,-2.37006 8.29612,-3.64419 13.42677,-4.16376c-0.75089,0.07949 -1.4992,0.17876 -2.24362,0.29767c-4.36008,0.66539 -8.44818,1.89529 -11.58205,3.90345c0.1258,-0.01295 0.2588,-0.02533 0.3989,-0.03736z" fill="#FFFFFF"/>
       <path d="m27656.47267,213.77951c-0.74462,0.02148 -1.4433,0.04427 -2.09512,0.06891c-5.63114,5.24079 -9.41446,11.633 -9.11258,17.78007c-0.03816,0 -0.01721,0 0.06319,0c0.5107,-6.29727 5.06357,-12.56036 11.14451,-17.84898z" fill="#CC142B"/>
       <path d="m27666.65109,213.58763c3.78788,5.97085 10.37972,11.75882 17.35966,18.04086l0,0c0,-1.42423 0,-2.84597 0,-4.26281c-5.33977,-4.8029 -10.28614,-9.29242 -13.75742,-13.81607c-1.22669,0.01107 -2.4281,0.02371 -3.60224,0.03802z" fill="#CC142B"/>
       <path d="m27674.13304,200.83249c5.20293,-2.57923 9.86342,-5.16773 9.87776,-4.07552l0,0l0,0c-0.64341,-0.21901 -1.96751,0.22514 -3.74953,0.82206c-2.31148,0.77463 -5.02735,1.8763 -8.04179,3.29861c0.62017,-0.01662 1.25838,-0.03159 1.91355,-0.04515z" fill="#CC142B"/>
       <path d="m27667.04367,201.08742c3.85457,-3.12356 10.31054,-4.329 16.96713,-4.33045c-1.51203,0.00009 -3.02435,0.07984 -4.52603,0.23874c-5.13065,0.51953 -9.97182,1.7937 -13.42677,4.16376c0.3009,-0.02581 0.62965,-0.04957 0.98568,-0.07206z" fill="#CC142B"/>
       <path d="m27668.91844,202.84144c4.50421,-0.12967 9.63631,-0.18616 15.09236,-0.1862c0,-0.67804 0,-1.31731 0,-1.91707c-2.29301,0 -4.55321,0.01387 -6.74797,0.04231c-1.07298,0.01391 -2.11752,0.03119 -3.12979,0.05206c-0.65517,0.01352 -1.29338,0.02852 -1.9136,0.04511c-0.07199,0.00192 -0.14369,0.00385 -0.2151,0.00582c0.31432,-0.24924 0.63354,-0.48882 0.95734,-0.71824c3.30907,-2.34289 7.27501,-3.60486 11.04913,-3.40824l0,0c-5.2934,-0.24714 -10.87671,2.08827 -15.09236,6.08447z" fill="#FFFFFF"/>
       <path d="m27663.07725,210.55165c-3.39132,6.20084 -5.11393,13.55847 -5.11568,21.07684c0.523,0 1.05461,0 1.59462,0c0.00097,-5.75131 0.9481,-11.41482 2.84027,-16.59064c0.17228,-0.47101 0.35228,-0.93708 0.53987,-1.39785c1.19757,-0.01942 2.43665,-0.03684 3.71477,-0.05237c1.17414,-0.01426 2.37555,-0.02691 3.60224,-0.03802c0.62217,-0.00564 1.24992,-0.01085 1.88298,-0.01566c3.85764,-0.02936 7.83568,-0.04366 11.87449,-0.04371c0,-1.06929 0,-2.11246 0,-3.12816c-7.58446,0.00009 -14.70552,0.05753 -20.93355,0.18957z" fill="#FFFFFF"/>
       <path d="m27654.37756,213.84842c0.65182,-0.02463 1.3505,-0.04742 2.09512,-0.06891c0.09085,-0.00262 0.18234,-0.00521 0.27446,-0.00779c-0.24067,0.45802 -0.47177,0.92172 -0.69319,1.39068c-2.40311,5.09283 -3.64132,10.75809 -3.64254,16.46609c0.40828,0 0.82682,0 1.25556,0c0.00204,-7.48744 2.0413,-14.87127 5.93462,-20.99017c-3.98806,0.11707 -7.45015,0.15422 -6.93678,0.49319c-0.79488,0.98477 -1.53255,2.00711 -2.20882,3.06122c-0.09975,-0.05206 0.60418,-0.17167 1.58898,-0.23336c0.66596,-0.04165 1.44437,-0.07739 2.33258,-0.11095z" fill="#FFFFFF"/>
       <path d="m27666.39234,202.92684c4.99994,-4.08431 11.42931,-6.38035 17.61846,-6.16987l0,0c-4.91516,-0.15046 -9.96118,1.10202 -14.34405,3.52943c-0.41781,0.23157 -0.83051,0.47359 -1.23762,0.72572c-0.49393,0.02327 -0.95607,0.04817 -1.38545,0.07529c-0.35598,0.02249 -0.68478,0.04624 -0.98568,0.07206c-0.1401,0.01203 -0.27305,0.02441 -0.3989,0.03736c-0.60165,0.06191 -1.08008,0.13956 -1.02121,0.23205c-1.17117,0.60865 -2.30715,1.2726 -3.40133,1.98795c-0.30829,-0.3871 2.23531,-0.37384 5.15578,-0.49z" fill="#FFFFFF"/>
       <path d="m27659.60154,210.63832c-3.89332,6.1189 -5.93258,13.50274 -5.93462,20.99017c0.66188,0 1.34598,0 2.05175,0c0.72702,0 1.47484,0 2.24289,0c0.00175,-7.51837 1.72436,-14.876 5.11573,-21.07684c6.22803,-0.13204 13.34909,-0.18948 20.93355,-0.18957c0,-1.46916 0,-2.86933 0,-4.1967c0,-1.2509 0,-2.42195 0,-3.51014c-5.45605,0.00004 -10.58816,0.05652 -15.09236,0.1862c4.21561,-3.9962 9.79892,-6.33161 15.09232,-6.08447l0,0l0,0c-6.18915,-0.21048 -12.61852,2.08556 -17.61846,6.16987c-2.92047,0.11611 -5.46407,0.1029 -5.15578,0.49c-1.641,1.07323 -3.18876,2.26292 -4.6232,3.55376c-1.43425,1.29106 -2.75617,2.68401 -3.94859,4.16092c-0.51338,-0.33897 2.94867,-0.37612 6.93678,-0.49319z" fill="#CC142B"/>
      </g>
      <g>
       <g id="svg_5">
        <g>
         <path d="m27700.31308,203.46505c1.08732,1.21782 2.04519,2.57639 2.86501,4.04012c-0.10412,-0.89363 -0.31543,-1.75603 -0.63583,-2.56488c1.2157,0.83689 2.41988,1.71998 3.60321,2.64936c-1.35098,-1.47914 -2.79409,-2.844 -4.31253,-4.07425c-0.44624,-0.73347 -1.00031,-1.41631 -1.64255,-2.03249c-0.38373,-0.01737 -0.78258,-0.03377 -1.19626,-0.04931c-1.5358,-1.01312 -3.1244,-1.88487 -4.74288,-2.5931c1.41019,0.69295 2.73478,1.5571 3.93823,2.56457c-0.45363,-0.01518 -0.92054,-0.0294 -1.40023,-0.04274c1.16481,0.64999 2.34181,1.35108 3.52383,2.10271z" fill="#FFFFFF"/>
         <path d="m27717.30096,218.61694c-0.11404,-1.02685 -0.3148,-2.038 -0.60107,-3.02202c-0.31903,-0.01693 -0.66266,-0.0329 -1.03064,-0.04821c-0.9552,-1.61555 -2.03105,-3.16666 -3.21442,-4.63727c0.95598,1.46037 1.78148,3.00404 2.46859,4.60826c-0.43609,-0.01592 -0.89565,-0.03102 -1.3783,-0.0455c0.88369,1.01014 1.71999,2.04561 2.4997,3.10506c0.52106,1.69373 0.89934,3.43734 1.13554,5.20886c0.16182,-1.0857 0.24169,-2.16588 0.23391,-3.23093c0.69576,1.07205 1.32887,2.16374 1.89003,3.2714c-0.53029,-1.77533 -1.20156,-3.51801 -2.00334,-5.20964z" fill="#FFFFFF"/>
         <path d="m27700.82894,221.27828c-0.61799,-1.98292 -1.30782,-3.91487 -2.05982,-5.78526c0.13635,1.87206 0.16387,3.80173 0.09834,5.77463c-1.08013,-0.00542 -2.1745,-0.01019 -3.28189,-0.01435c1.03156,1.24197 2.05253,2.49847 3.05128,3.77163c-0.18229,2.06784 -0.45237,4.15217 -0.79653,6.24219c0.91524,-1.28817 1.79101,-2.57744 2.61418,-3.86919c0.95651,1.28156 1.87632,2.57122 2.7465,3.87024c-0.33979,-2.09269 -0.77923,-4.17409 -1.30583,-6.23195c0.72755,-1.25155 1.39226,-2.49781 1.97913,-3.73799c-0.99618,-0.00731 -2.0116,-0.01391 -3.04535,-0.01995z" fill="#FFFFFF"/>
         <path d="m27702.88225,258.52043c1.25231,-1.457 2.33593,-3.08095 3.23819,-4.82495c-1.34559,1.75704 -2.80357,3.38598 -4.35531,4.86039c-0.6332,0.01886 -1.28706,0.03636 -1.9608,0.05263c-0.18132,0.86703 -0.49709,1.69032 -0.94154,2.43507c-1.5675,1.20505 -3.19775,2.24459 -4.86514,3.08677c1.27865,-0.52894 2.582,-1.12853 3.90095,-1.7958c-0.60053,0.65502 -1.32838,1.23541 -2.14727,1.72926c1.67799,-0.82753 3.24685,-1.86392 4.65957,-3.07369c1.38161,-0.78015 2.75656,-1.62417 4.1127,-2.53128c-0.52344,0.02187 -1.07079,0.04231 -1.64134,0.0616z" fill="#FFFFFF"/>
        </g>
        <g>
         <path d="m27702.4045,205.80864c-0.14117,-0.55138 -0.32982,-1.08574 -0.5651,-1.59626c0.80412,0.52977 1.60478,1.08045 2.39956,1.65213c-0.92773,-0.91078 -1.89134,-1.76837 -2.88606,-2.56694c-0.29006,-0.47779 -0.62649,-0.93297 -1.0041,-1.36031c-0.2763,-0.01133 -0.55936,-0.02222 -0.84908,-0.03277c-1.00191,-0.7035 -2.02828,-1.34588 -3.07316,-1.92084c0.88685,0.5659 1.72947,1.20268 2.5189,1.90146c-0.30795,-0.01037 -0.62207,-0.0203 -0.94222,-0.02984c0.78321,0.44747 1.57002,0.91722 2.35815,1.40914c0.73796,0.79008 1.42025,1.64154 2.0431,2.54423z" fill="#CC142B"/>
         <path d="m27716.63777,216.40048c-0.21982,-0.00976 -0.44911,-0.01921 -0.68784,-0.02839c-0.56534,-1.01425 -1.17764,-2.00523 -1.83383,-2.969c0.50808,0.95812 0.96414,1.94385 1.36669,2.95171c-0.26512,-0.00941 -0.53948,-0.01855 -0.82288,-0.02739c0.52383,0.63319 1.02792,1.27592 1.51014,1.92779c0.33848,1.04147 0.62236,2.10262 0.85151,3.17812c0.03724,-0.65935 0.04215,-1.31481 0.01361,-1.96389c0.45052,0.65743 0.87766,1.32295 1.27924,1.99591c-0.40566,-1.07896 -0.86318,-2.14204 -1.36989,-3.18503c-0.06908,-0.63402 -0.17135,-1.26153 -0.30673,-1.87984z" fill="#CC142B"/>
         <path d="m27700.62822,222.18793c-0.39141,-1.3251 -0.81481,-2.63046 -1.26718,-3.91303c0.03135,1.28283 0.01692,2.58636 -0.03899,3.9066c-0.71443,-0.00337 -1.43542,-0.00647 -2.16268,-0.00932c0.67831,0.82587 1.34962,1.65821 2.01048,2.49768c-0.10801,1.36049 -0.25589,2.72986 -0.43968,4.10487c0.57185,-0.84774 1.12324,-1.69513 1.65033,-2.54244c0.64351,0.84446 1.27228,1.69356 1.88283,2.54773c-0.27601,-1.37694 -0.59193,-2.74548 -0.94421,-4.10234c0.4845,-0.8284 0.94173,-1.65449 1.36751,-2.47821c-0.67817,-0.00407 -1.3644,-0.00792 -2.05841,-0.01155z" fill="#CC142B"/>
         <path d="m27702.13316,259.11005c0.88184,-0.97505 1.68479,-2.03174 2.40301,-3.15419c-1.00444,1.13019 -2.05837,2.19274 -3.15517,3.17856c-0.42004,0.01304 -0.84996,0.02542 -1.28944,0.03723c-0.18788,0.58577 -0.44075,1.14668 -0.75512,1.67129c-1.10482,0.85583 -2.24192,1.63134 -3.40308,2.31612c0.91004,-0.4294 1.82853,-0.89162 2.75218,-1.386c-0.38927,0.48116 -0.84009,0.92789 -1.34117,1.33393c1.09296,-0.67515 2.12545,-1.44672 3.08317,-2.3015c0.95228,-0.54836 1.90223,-1.12743 2.84591,-1.73691c-0.36929,0.01444 -0.74948,0.02822 -1.14031,0.04147z" fill="#CC142B"/>
        </g>
       </g>
      </g>
     </g>
    </g>
   </g>
  </g>
  <g>
   <g>
    <g>
     <g>
      <path d="m27566.49902,252.5153l0,0c21.04386,0.01381 40.63708,16.39298 40.65365,33.98478c-0.01652,17.5918 -19.60979,33.97093 -40.65365,33.98478l0,0c-21.04386,-0.01381 -40.63708,-16.39298 -40.65365,-33.98478c0.01657,-17.59185 19.60979,-33.97097 40.65365,-33.98478z" fill="#FF0000"/>
      <path d="m27566.49902,252.5153l0,0c7.56882,-0.27943 15.50606,3.43969 20.79175,9.40426c5.80846,6.56509 8.89033,15.4656 8.89343,24.58048c-0.00315,9.11488 -3.08496,18.01539 -8.89343,24.58048c-5.28569,5.96462 -13.22288,9.68373 -20.79175,9.40426l0,0c-7.56882,0.27943 -15.50606,-3.43969 -20.79175,-9.40426c-5.80846,-6.56509 -8.89033,-15.4656 -8.89343,-24.58048c0.00315,-9.11488 3.08496,-18.01539 8.89343,-24.58048c5.28569,-5.96462 13.22293,-9.68373 20.79175,-9.40426z" fill="#FFFFFF"/>
      <path d="m27566.21544,319.31427c0.18902,0.00017 0.37809,0.00017 0.56711,0c0.08688,-1.11004 0.12613,-2.57278 0.1516,-4.37352c0.02994,-2.12289 0.03183,-4.54752 0.01754,-7.24856c-0.25074,0.03736 -0.50097,0.07459 -0.75069,0.11177c-0.05033,2.67372 -0.082,5.07379 -0.08094,7.17563c0.00107,1.78336 0.02069,3.23301 0.09537,4.33468z" stroke-width="5.331" stroke="#FF0000" fill="#FF0000"/>
      <path d="m27566.53481,253.68569c-0.61693,2.22454 -1.94708,5.46827 -3.55167,9.71127c-0.39858,-0.92139 -0.74723,-1.81047 -1.03381,-2.66666c-1.29568,5.65505 -2.01475,12.45661 -2.3179,19.96216c-2.12416,-3.90446 -3.96031,-7.67619 -5.16337,-11.29837c-0.35765,1.39228 -0.6754,2.82366 -0.95394,4.28895c-2.12655,-0.81922 -4.12411,-1.63202 -5.96789,-2.45544c-0.56447,4.12835 -0.47082,8.50943 0.118,12.9748c-0.88709,0.03999 -1.76178,0.0802 -2.6234,0.12083c2.72777,5.85424 6.48899,11.46476 10.40584,16.80574c-0.66253,1.56223 -1.21953,3.08669 -1.63707,4.56821c1.35878,1.76874 2.71211,3.43833 4.03194,5.00834c0.31774,1.30562 0.69817,2.52799 1.15511,3.65159c1.52873,-0.79104 3.31959,-1.58744 5.32483,-2.42531c0.69172,-0.57123 1.42939,-1.15348 2.20702,-1.74932c1.01383,0.68534 1.96737,1.35212 2.85019,2.00567c1.79909,0.79912 3.40134,1.5613 4.76352,2.31809c0.50387,-1.18399 0.91805,-2.48137 1.25933,-3.87271c1.3392,-1.54978 2.71181,-3.19608 4.08985,-4.93885c-0.44464,-1.41489 -1.02385,-2.86803 -1.7056,-4.35525c3.84353,-5.32492 7.5196,-10.93164 10.18006,-16.78177c-0.73091,-0.08525 -1.47133,-0.16991 -2.2208,-0.25423c0.53071,-4.58827 0.5331,-9.08764 -0.15287,-13.31229c-1.78262,0.83031 -3.71913,1.65017 -5.78452,2.47631c-0.29532,-1.4658 -0.63096,-2.89693 -1.00738,-4.28793c-1.19904,3.60875 -3.05294,7.36901 -5.20729,11.26407c-0.3029,-7.37479 -1.02547,-14.06312 -2.33407,-19.63619c-0.30254,0.81034 -0.66426,1.64936 -1.07408,2.51681c-1.627,-4.21058 -2.97912,-7.42995 -3.65004,-9.63852z" stroke-width="5.331" stroke="#FF0000" fill="#FF0000"/>
     </g>
    </g>
   </g>
  </g>
  <g>
   <g>
    <g>
     <g>
      <path d="m27566.5083,477.57587l0,0c8.96658,0.00374 17.94472,3.95157 24.28756,10.67955c6.33782,6.73326 10.05671,16.26414 10.06024,25.7827c-0.00352,9.51856 -3.72242,19.04939 -10.06024,25.7827c-6.3428,6.72797 -15.32098,10.6758 -24.28756,10.67955l0,0c-8.96658,-0.00374 -17.94472,-3.95157 -24.28756,-10.67955c-6.33782,-6.73331 -10.05671,-16.26414 -10.06024,-25.7827c0.00352,-9.51856 3.72242,-19.04939 10.06024,-25.7827c6.34284,-6.72797 15.32098,-10.6758 24.28756,-10.67955z" fill="#00008B"/>
      <path d="m27542.69322,525.65494c1.09465,3.34161 2.48392,6.51778 4.11972,9.44729c0.51038,-1.08488 1.18748,-2.17706 1.99253,-3.27472c0.1096,2.63633 0.50905,5.14472 1.24903,7.41016c1.60194,1.37255 3.20202,2.64824 4.77362,3.83413c-0.76641,0.16681 -1.48022,0.3322 -2.1391,0.50005c1.86149,2.09088 3.91235,3.80366 6.06949,5.00338c-1.87726,-0.89608 -3.79308,-2.0473 -5.71006,-3.4215c1.06177,1.36977 2.42096,2.50315 3.96014,3.34202c-2.45719,-1.19005 -4.74594,-2.90379 -6.73796,-5.01862c-0.8332,-0.21517 -1.63456,-0.43791 -2.39925,-0.67238c-0.70254,-1.1128 -1.20691,-2.36696 -1.47472,-3.68973c-1.99546,-2.26955 -3.82604,-4.77584 -5.42927,-7.47335c1.27293,1.18234 2.62163,2.31563 4.02182,3.40922c-1.13935,-2.91163 -1.89893,-6.08826 -2.29601,-9.39596l0,0z" fill="#FFFFFF" id="svg_19"/>
      <path d="m27583.39116,541.35438c-0.70942,1.09474 -1.49281,2.1131 -2.34247,3.03811c0.65432,-0.35775 1.30924,-0.72773 1.96296,-1.11066c-1.01071,0.87158 -2.04235,1.67833 -3.08877,2.415c-0.29927,0.4334 -0.64719,0.83777 -1.03452,1.20866c-0.32983,0.0782 -0.66318,0.15453 -0.99971,0.22922c-1.04342,0.7196 -2.13772,1.3334 -3.26619,1.82985c0.71548,-0.35364 1.38914,-0.77221 2.00663,-1.25292c-0.92552,0.48582 -1.84477,0.9163 -2.75332,1.28723c1.08055,-0.49773 2.14154,-1.1113 3.17009,-1.8273c-0.18112,-0.05407 -0.37319,-0.10749 -0.57593,-0.16092c0.7331,-0.39507 1.47648,-0.81587 2.22789,-1.26246c0.63107,-0.71609 1.19831,-1.50956 1.69387,-2.36445c0.05553,0.35127 0.07392,0.69821 0.05222,1.0331c1.01844,-0.93669 2.00302,-1.96094 2.94724,-3.06247l0,0z" fill="#FFFFFF" id="svg_18"/>
      <path d="m27578.97643,498.56165c0.47939,1.55304 0.92724,3.142 1.33942,4.76188c0.60954,-0.59523 1.19715,-1.18959 1.76014,-1.78437c-0.16504,1.40631 -0.38686,2.83078 -0.65712,4.26885c0.71552,0.89129 1.41768,1.78957 2.10239,2.69592c-0.71325,0.15139 -1.43797,0.30204 -2.17356,0.45228c0.20089,1.75927 0.35222,3.52936 0.45159,5.30336c-0.51894,-1.30206 -1.07019,-2.59882 -1.64689,-3.88966c-0.48597,1.29736 -1.00521,2.59426 -1.55066,3.89002c0.11175,-1.77478 0.18219,-3.5471 0.20854,-5.31075c-0.78756,-0.15636 -1.58169,-0.3118 -2.38184,-0.46666c0.64689,-0.89791 1.27361,-1.79367 1.87567,-2.68848c-0.53247,-1.45107 -1.08506,-2.88211 -1.65128,-4.29176c0.76933,0.59956 1.53708,1.2036 2.30113,1.81334c0.05764,-1.6135 0.06731,-3.20035 0.02248,-4.75399z" fill="#FFFFFF" id="svg_17"/>
      <path d="m27573.73455,478.86798c1.12465,0.44585 2.24074,0.99897 3.33685,1.64858c-0.16827,-0.23625 -0.3719,-0.45584 -0.60249,-0.6571c0.86827,0.49777 1.68867,1.0789 2.44618,1.73609c0.78283,0.42094 1.56901,0.86843 2.3558,1.34248c-0.18198,0.06698 -0.37676,0.13272 -0.58396,0.19801c1.06503,0.92966 2.0846,1.95875 3.05039,3.07388c-0.9171,-0.82541 -1.84688,-1.60405 -2.78461,-2.3337c0.47033,0.70646 0.87751,1.4696 1.21645,2.27557c-0.77974,-1.10893 -1.62502,-2.13413 -2.52862,-3.05868c-0.41187,-0.09308 -0.8274,-0.18433 -1.24615,-0.27389c-0.15374,-0.45037 -0.36038,-0.87815 -0.61366,-1.27245c-0.9664,-0.65819 -1.93649,-1.24685 -2.90465,-1.75923c0.57494,0.22315 1.15993,0.45949 1.75374,0.70938c-0.91495,-0.64624 -1.88599,-1.19265 -2.89528,-1.62896z" fill="#FFFFFF" id="svg_16"/>
      <path d="m27592.04846,492.21784c0.92978,1.33829 1.78537,2.74195 2.55866,4.19955c-0.00774,-0.52446 -0.0548,-1.04441 -0.1405,-1.55414c0.5565,1.22577 1.03241,2.49849 1.42396,3.80534c0.54511,0.81569 1.05485,1.64717 1.52419,2.49302c-0.17557,0.13387 -0.37388,0.26303 -0.59204,0.38946c0.55203,1.62782 1.00435,3.29635 1.35214,4.98996c-0.41699,-1.24786 -0.8987,-2.47992 -1.43874,-3.6906c0.12314,1.20451 0.17265,2.42809 0.1512,3.66103c-0.25057,-1.69521 -0.60412,-3.36675 -1.05902,-4.99827c-0.37869,-0.15677 -0.77514,-0.30998 -1.18834,-0.46077c0.06765,-0.82176 0.08488,-1.63722 0.04956,-2.44c-0.69442,-1.32902 -1.45228,-2.62036 -2.26627,-3.86785c0.57541,0.53797 1.1317,1.08611 1.66572,1.64516c-0.58813,-1.44756 -1.27018,-2.84347 -2.0405,-4.1719z" fill="#FFFFFF" id="svg_15"/>
      <path d="m27595.04642,514.03812c0.11192,1.04469 0.18829,2.09019 0.22783,3.13328c0.27825,0.07948 0.54902,0.15969 0.8121,0.24081c-0.25788,0.72814 -0.5375,1.45276 -0.83733,2.17296c-0.06245,1.08059 -0.16423,2.1548 -0.3058,3.21874c-0.11931,-0.57579 -0.25938,-1.15309 -0.41888,-1.73094c-0.33662,0.58948 -0.68819,1.17463 -1.05343,1.7553c0.2691,-1.06745 0.50329,-2.14576 0.70138,-3.23179c-0.15159,-0.72216 -0.32682,-1.44546 -0.52405,-2.16867c0.32548,-0.0834 0.64405,-0.16745 0.95552,-0.2524c0.18228,-1.04259 0.3303,-2.08933 0.44265,-3.1373l0,0z" fill="#FFFFFF" id="svg_14"/>
      <path d="m27566.5083,477.57587l0,0c-3.66062,-0.2248 -7.52208,1.39687 -10.6436,4.31471c3.2349,-0.10494 6.84351,-0.15189 10.6436,-0.15193c0,1.64503 0,3.54108 0,5.6748c0,2.35573 0,4.91546 0,7.659c-6.69124,0.00005 -13.02888,0.04841 -18.68229,0.15659c-1.99584,5.78471 -2.99546,12.2382 -2.9965,18.80904c-2.31746,0 -4.43403,0 -6.33378,0c0.00133,-6.52257 1.31346,-12.98837 3.84358,-18.67134c-3.23972,0.10713 -5.99359,0.18278 -5.57708,0.44024c2.99495,-5.50343 7.38785,-10.16676 12.57218,-13.34612c-0.17617,-0.32869 1.45894,-0.32992 3.36092,-0.43577c4.14276,-3.02424 9.04764,-4.62113 13.81296,-4.44921z" fill="#FFFFFF" id="svg_13"/>
      <path d="m27566.5083,477.57587l0,0c-3.82579,-0.03157 -7.41935,0.51351 -10.23972,1.93128c-2.42856,1.22304 -4.17843,3.46826 -4.25266,5.9574c-0.08231,2.86555 1.54194,6.20004 3.94733,9.62738c2.81422,4.00728 6.52658,8.02237 10.54496,12.28205c0,2.20686 0,4.4311 0,6.6641c-2.10351,0 -4.19876,0 -6.27764,0c-4.03484,-4.35677 -7.7417,-8.5998 -10.4951,-12.93198c-2.4176,-3.80667 -3.97063,-7.62962 -3.85587,-11.01758c0.21284,-6.03989 7.10264,-10.59591 14.62751,-11.95176c1.97951,-0.37271 3.99079,-0.56069 6.0012,-0.56087l0,0z" fill="#FFFFFF" id="svg_12"/>
      <path d="m27566.5083,477.57587l0,0c-0.4503,-0.12013 -1.15985,0.03322 -2.05872,0.2894c-1.12172,0.31997 -2.42727,0.81054 -3.89782,1.44669c-3.44658,1.49168 -7.31345,3.55815 -11.2711,6.2563c-8.24495,5.62507 -15.50103,13.39873 -16.5918,22.09923c-0.3511,2.10142 -0.52813,4.23646 -0.52831,6.37063c-0.03112,0 0.056,0 0.262,0c1.11652,-8.99848 8.43801,-17.31394 16.71993,-24.05414c3.9996,-3.25346 7.91121,-5.92962 11.36179,-8.18671c2.79823,-1.83017 4.89121,-3.058 6.00404,-3.94331c0,-0.21864 0,-0.31112 0,-0.27809l0,0z" fill="#FFFFFF" id="svg_11"/>
      <path d="m27566.5083,477.57587l0,0c-4.69251,-0.25842 -9.64209,2.18354 -13.37921,6.36201c3.99293,-0.13555 8.5425,-0.19464 13.37921,-0.19468c0,2.36235 0,5.05817 0,8.05841c-6.72351,0.00005 -13.03627,0.06013 -18.55735,0.1982c-3.00638,6.48369 -4.53345,14.17696 -4.53504,22.03827c-1.34376,0 -2.61398,0 -3.80713,0c0.00181,-7.82896 1.80957,-15.54965 5.26096,-21.94766c-3.53537,0.12241 -6.60446,0.16124 -6.14939,0.5157c2.11369,-3.08734 4.69054,-5.82281 7.59884,-8.06662c-0.27331,-0.40474 1.98157,-0.39092 4.57054,-0.51233c4.4324,-4.27059 10.13193,-6.67135 15.61857,-6.4513z" fill="#FF0000" id="svg_10"/>
      <path d="m27566.5083,477.57587c-5.90097,0.00151 -11.62414,1.26195 -15.04119,4.52796c-0.3156,0.02354 -0.60704,0.04836 -0.87378,0.07533c3.06277,-2.47819 7.35446,-3.81045 11.90273,-4.35372c1.33121,-0.16608 2.67183,-0.24948 4.01223,-0.24957l0,0zm0,0l0,0c-0.57038,-0.22904 -1.74416,0.23543 -3.32391,0.85954c-2.0491,0.80999 -4.45668,1.96189 -7.12898,3.44905c0.5498,-0.01734 1.11558,-0.03303 1.69641,-0.04718c2.49544,-1.45924 4.66642,-2.59417 6.42962,-3.41725c1.27237,-0.59372 2.32533,-1.1222 2.32687,-0.84416z" fill="#FF0000" id="svg_9"/>
      <path d="m27566.5083,514.03812c-3.12668,-3.31916 -6.19199,-6.56847 -8.96086,-9.84802c-2.59627,-3.07588 -4.8383,-6.05828 -6.42833,-9.01581c1.04088,-0.01492 2.10591,-0.02815 3.19334,-0.03974c3.07725,4.73003 7.46216,9.42434 12.19585,14.44634c0,1.48141 0,2.96803 0,4.45724l0,0zm-34.3478,0c-0.03382,0 -0.01526,0 0.056,0c0.45275,-6.58453 4.48883,-13.13333 9.87951,-18.66317c-0.66008,0.02249 -1.27946,0.04631 -1.85728,0.07204c-4.99195,5.47989 -8.34582,12.16365 -8.07823,18.59113z" fill="#FF0000" id="svg_8"/>
     </g>
    </g>
   </g>
  </g>
  <g>
   <circle fill="#F0F0F0" r="29.95283" cy="401.5" cx="27524.4991"/>
   <path d="m27497.62894,424.83461c-14.83989,-12.8874 -14.83989,-33.78181 0,-46.66922c-0.00104,0.00142 21.91368,23.33461 21.91368,23.33461l-21.91368,23.33461z"/>
   <path fill="#FFDA44" d="m27519.54262,401.5l-28.00362,-16.43387c-0.86821,1.31059 -1.63385,2.67854 -2.29173,4.09445l14.17712,12.33955l-14.17667,12.34019c0.65728,1.41487 1.42218,2.78193 2.2898,4.09161l28.00511,-16.43194z"/>
   <path fill="#6DA544" d="m27562.17744,397.19569l-42.63585,0l-21.91294,-19.02978c-2.36134,2.05064 -4.4129,4.36979 -6.08965,6.90035l18.88704,16.43374l-18.88852,16.43168c1.67675,2.5312 3.7292,4.85113 6.09113,6.90228l21.91294,-19.02966l42.63585,0c0.21123,-1.40895 0.32166,-2.84548 0.32166,-4.30431c0,-1.45883 -0.11044,-2.89536 -0.32166,-4.30431z"/>
   <path fill="#0052B4" d="m27501.36333,427.6779c6.4079,4.27737 14.42902,6.82211 23.13577,6.82211c17.55704,0 32.33043,-10.34099 36.69093,-24.39125l-39.59541,0l-20.23129,17.56915z"/>
   <path fill="#D80027" d="m27561.19003,392.89126c-4.3605,-14.05026 -19.13389,-24.39125 -36.69093,-24.39125c-8.70675,0 -16.72787,2.54474 -23.13577,6.82211l20.23114,17.56915l39.59555,0z"/>
   <g/>
   <g/>
   <g/>
   <g/>
   <g/>
   <g/>
   <g/>
   <g/>
   <g/>
   <g/>
   <g/>
   <g/>
   <g/>
   <g/>
   <g/>
  </g>
  <g>
   <circle fill="#F0F0F0" r="25.6" cy="396" cx="27861.49903"/>
   <g>
    <path fill="#0052B4" d="m27836.11403,378.64862c-2.51363,2.91268 -4.409,6.26978 -5.51263,9.91678l16.64725,0l-11.13463,-9.91678z"/>
    <path fill="#0052B4" d="m27892.39665,388.5654c-1.10363,-3.64689 -2.99913,-7.00399 -5.51263,-9.91666l-11.13438,9.91666l16.647,0z"/>
    <path fill="#0052B4" d="m27830.6014,403.43494c1.10375,3.64689 2.99913,7.00399 5.51263,9.91655l11.13425,-9.91655l-16.64688,0l0,0z"/>
    <path fill="#0052B4" d="m27880.98128,373.3916c-3.27038,-2.2387 -7.03963,-3.92677 -11.1345,-4.90979l0,14.82635l11.1345,-9.91655z"/>
    <path fill="#0052B4" d="m27842.01678,418.60841c3.27038,2.2387 7.03975,3.92677 11.1345,4.90979l0,-14.82623l-11.1345,9.91644z"/>
    <path fill="#0052B4" d="m27853.15115,368.4818c-4.09475,0.98303 -7.86413,2.6711 -11.13438,4.90968l11.13438,9.91655l0,-14.82623z"/>
    <path fill="#0052B4" d="m27869.8469,423.5182c4.09475,-0.98303 7.86413,-2.6711 11.13438,-4.90968l-11.13438,-9.91655l0,14.82623z"/>
    <path fill="#0052B4" d="m27875.74965,403.43494l11.13438,9.91666c2.5135,-2.91257 4.409,-6.26978 5.51263,-9.91666l-16.647,0z"/>
   </g>
   <g>
    <path fill="#D80027" d="m27893.22815,392.28264l-27.555,0l-0.00012,0l0,-24.5414c-1.36638,-0.15842 -2.75938,-0.24125 -4.174,-0.24125c-1.41488,0 -2.80763,0.08283 -4.17388,0.24125l0,24.54117l0,0.00011l-27.55525,0c-0.17788,1.21693 -0.27088,2.45757 -0.27088,3.71747c0,1.26012 0.093,2.50054 0.27088,3.71736l27.555,0l0.00012,0l0,24.5414c1.36638,0.15842 2.75913,0.24125 4.174,0.24125c1.41463,0 2.80763,-0.08272 4.17388,-0.24125l0,-24.54117l0,-0.00011l27.55525,0c0.17788,-1.21693 0.27088,-2.45735 0.27088,-3.71747c0,-1.2599 -0.093,-2.50054 -0.27088,-3.71736z"/>
    <path fill="#D80027" d="m27869.8469,403.43494l0,0l14.2795,12.71768c0.65675,-0.5847 1.28325,-1.196 1.881,-1.82968l-12.22525,-10.88811l-3.93525,0l0,0.00011z"/>
    <path fill="#D80027" d="m27853.15115,403.43494l-0.00025,0l-14.27938,12.71757c0.6565,0.58492 1.34288,1.14289 2.05438,1.67527l12.22525,-10.88834l0,-3.5045z"/>
    <path fill="#D80027" d="m27853.15115,388.5654l0,-0.00022l-14.2795,-12.71779c-0.65675,0.5847 -1.28325,1.196 -1.881,1.82968l12.22538,10.88822l3.93513,0l0,0.00011z"/>
    <path fill="#D80027" d="m27869.8469,388.5654l0,0l14.27963,-12.7179c-0.6565,-0.58492 -1.34288,-1.14289 -2.05438,-1.67515l-12.22525,10.88822l0,3.50483z"/>
   </g>
   <g/>
   <g/>
   <g/>
   <g/>
   <g/>
   <g/>
   <g/>
   <g/>
   <g/>
   <g/>
   <g/>
   <g/>
   <g/>
   <g/>
   <g/>
  </g>
 </g>

</svg>