
<svg version="1.1" id="Capa_1" xmlns="http://www.w3.org/2000/svg" xmlns:xlink="http://www.w3.org/1999/xlink" width="50px" height="50px"
	 viewBox="0 0 500.372 500.372" style="enable-background:new 0 0 500.372 500.372;" xml:space="preserve">
<g>
	<g>
	</g>
	<g>
	</g>
	<g>
	</g>
	<g>
	</g>
	<g>
	</g>
	<g>
	</g>
	<g>
	</g>
	<g>
	</g>
	<g>
	</g>
	<g>
	</g>
	<g>
	</g>
	<g>
	</g>
	<g>
	</g>
	<g>
	</g>
	<g>
	</g>
</g>
<g>
	<path style="fill:#f4f5f7;" d="M69.163,399.153h44.114c5.841,0,10.53-4.396,10.53-10.237v-81.911
		c0-5.841-4.672-10.852-10.53-10.852H69.163c-5.841,0-10.356,5.011-10.356,10.852v81.911
		C58.807,394.758,63.305,399.153,69.163,399.153z M79.807,317.153h23v61h-23V317.153z"/>
	<path style="fill:#f4f5f7;" d="M148.569,399.153h44.114c5.841,0,10.124-4.396,10.124-10.237V256.521
		c0-5.841-4.266-10.368-10.124-10.368h-44.114c-5.841,0-10.762,4.527-10.762,10.368v132.396
		C137.807,394.758,142.711,399.153,148.569,399.153z M158.807,267.153h23v111h-23V267.153z"/>
	<path style="fill:#f4f5f7;" d="M227.975,399.153h44.114c5.841,0,10.718-4.396,10.718-10.237V124.743
		c0-5.841-4.86-10.589-10.718-10.589h-44.114c-5.858,0-10.167,4.749-10.167,10.589v264.174
		C217.807,394.758,222.116,399.153,227.975,399.153z M238.807,135.153h23v243h-23V135.153z"/>
	<path style="fill:#f4f5f7;" d="M307.38,399.153h44.114c5.841,0,10.313-4.396,10.313-10.237V210.395
		c0-5.841-4.472-10.242-10.313-10.242H307.38c-5.841,0-10.573,4.401-10.573,10.242v178.522
		C296.807,394.758,301.522,399.153,307.38,399.153z M317.807,221.153h23v157h-23V221.153z"/>
	<path style="fill:#f4f5f7;" d="M386.786,399.153h44.114c5.841,0,10.907-4.396,10.907-10.237V154.582
		c0-5.841-5.048-10.428-10.907-10.428h-44.114c-5.841,0-10.979,4.588-10.979,10.428v234.335
		C375.807,394.758,380.928,399.153,386.786,399.153z M397.807,165.153h23v213h-23V165.153z"/>
	<path style="fill:#f4f5f7;" d="M482.355,403.438c-6.461,0-12.112,3.716-15.292,8.716H28.807V93.283
		c4-3.294,7.164-8.456,7.164-14.278c0-9.95-8.013-18.016-17.963-18.016C8.058,60.989,0,69.055,0,79.005
		c0,6.154,2.807,11.582,7.807,14.832v328.519c0,5.841,4.766,10.798,10.624,10.798h450.223c3.305,4,8.212,6.23,13.701,6.23
		c9.95,0,18.016-8.022,18.016-17.973C500.372,411.46,492.306,403.438,482.355,403.438z"/>
</g>
<g>
</g>
<g>
</g>
<g>
</g>
<g>
</g>
<g>
</g>
<g>
</g>
<g>
</g>
<g>
</g>
<g>
</g>
<g>
</g>
<g>
</g>
<g>
</g>
<g>
</g>
<g>
</g>
<g>
</g>
</svg>
