<?xml version="1.0" ?><svg width="55" height="55" fill="#ffffff" data-name="Layer 2" id="Layer_2" viewBox="0 0 32 32" xmlns="http://www.w3.org/2000/svg"><title/><path d="M6.1139,8.2808a.3069.3069,0,0,0,.3937-.1836l.2734-.7514h.9362l.2735.7514a.3071.3071,0,1,0,.5772-.21l-1.03-2.8306-.0068-.0109a.2984.2984,0,0,0-.0344-.0565.3067.3067,0,0,0-.0315-.0434A.3111.3111,0,0,0,7.42,4.913a.3.3,0,0,0-.054-.0329L7.354,4.8729a.2863.2863,0,0,0-.043-.0065.2116.2116,0,0,0-.1244,0,.2841.2841,0,0,0-.0427.0064L7.1323,4.88a.3033.3033,0,0,0-.0543.0331.2979.2979,0,0,0-.045.0327.3032.3032,0,0,0-.0314.0431.2978.2978,0,0,0-.0346.0567L6.96,5.0565,5.93,7.8871A.307.307,0,0,0,6.1139,8.2808ZM7.249,6.06l.2445.6717H7.0046Z"/><path d="M27.0132,3.1539H4.9859A.9872.9872,0,0,0,4,4.14V24.4265a.9874.9874,0,0,0,.9859.9868h19.06v2.97a.4628.4628,0,0,0,.7747.3413l1.1591-1.0618,1.2586,1.0726A.4622.4622,0,0,0,28,28.3836V4.14A.9874.9874,0,0,0,27.0132,3.1539ZM15.5373,24.4861l-10.6128-.06L4.9859,4.0784H15.5373Zm.9245-20.4077H27.0132l.0623.0614v20.349H16.4618Zm10.6137,23.304-.8071-.688a.4631.4631,0,0,0-.6121.0109l-.6862.6283v-1.92h2.1054Z"/><path d="M26.0963,23.6016a.3468.3468,0,0,0-.3467-.3467H24.7311l1.3534-2.1831a.3457.3457,0,0,0-.2943-.529H24.0225a.3467.3467,0,1,0,0,.6933h1.1447l-1.3533,2.1831a.3458.3458,0,0,0,.2943.529H25.75A.3467.3467,0,0,0,26.0963,23.6016Z"/><path d="M22.3038,20.83H18.5961a.3052.3052,0,1,0,0,.61h3.7077a.3052.3052,0,1,0,0-.61Z"/><path d="M22.3038,23.0512H18.5961a.3052.3052,0,1,0,0,.61h3.7077a.3052.3052,0,1,0,0-.61Z"/><path d="M10.2925,5.7725H14a.3052.3052,0,0,0,0-.61H10.2925a.3052.3052,0,1,0,0,.61Z"/><path d="M25.9656,16.7955a.3051.3051,0,0,0-.3051-.3051H17.8768a.3051.3051,0,0,0,0,.61h7.7837A.3051.3051,0,0,0,25.9656,16.7955Z"/><path d="M17.8768,14.2686h7.7837a.3052.3052,0,0,0,0-.61H17.8768a.3052.3052,0,0,0,0,.61Z"/><path d="M17.8768,11.4366h7.7837a.3052.3052,0,0,0,0-.61H17.8768a.3052.3052,0,0,0,0,.61Z"/><path d="M17.8768,8.6046h7.7837a.3052.3052,0,0,0,0-.61H17.8768a.3052.3052,0,0,0,0,.61Z"/><path d="M6.2167,19.6841H14a.3051.3051,0,1,0,0-.61H6.2167a.3051.3051,0,0,0,0,.61Z"/><path d="M6.2167,16.8522H14a.3052.3052,0,0,0,0-.61H6.2167a.3052.3052,0,0,0,0,.61Z"/><path d="M6.2167,14.02H14a.3051.3051,0,0,0,0-.61H6.2167a.3051.3051,0,1,0,0,.61Z"/><path d="M6.2167,11.1881H14a.3052.3052,0,0,0,0-.61H6.2167a.3052.3052,0,0,0,0,.61Z"/><path d="M10.2925,7.9943H14a.3052.3052,0,0,0,0-.61H10.2925a.3052.3052,0,1,0,0,.61Z"/></svg>